<mxfile host="65bd71144e">
    <diagram id="s9l9xevxJd_8UbH9s4jz" name="Page-1">
        <mxGraphModel dx="1615" dy="1663" grid="1" gridSize="10" guides="1" tooltips="1" connect="1" arrows="1" fold="1" page="1" pageScale="1" pageWidth="850" pageHeight="1100" background="#ffffff" math="0" shadow="1">
            <root>
                <mxCell id="0"/>
                <mxCell id="1" parent="0"/>
                <UserObject label="" mermaidData="{&#xa;  &quot;data&quot;: &quot;classDiagram\n    %% Component Interface\n\n    class Coffee {\n        &lt;&lt;interface&gt;&gt;\n        +getDescription() String\n        +cost() double\n    }\n\n    %% Concrete Components\n\n    class SimpleCoffee {\n        +getDescription() String\n        +cost() double\n    }\n\n    class Espresso {\n        +getDescription() String\n        +cost() double\n    }\n\n    class ColdCoffee {\n        +getDescription() String\n        +cost() double\n    }\n\n    %% Decorator Base\n\n    class CoffeeDecorator {\n        -Coffee coffee\n        +CoffeeDecorator(Coffee coffee)\n        +getDescription() String\n        +cost() double\n    }\n\n    %% Concrete Decorators\n\n    class MilkDecorator {\n        +MilkDecorator(Coffee coffee)\n        +getDescription() String\n        +cost() double\n    }\n\n    class SugarDecorator {\n        +SugarDecorator(Coffee coffee)\n        +getDescription() String\n        +cost() double\n    }\n\n    class WhippedCreamDecorator {\n        +WhippedCreamDecorator(Coffee coffee)\n        +getDescription() String\n        +cost() double\n    }\n\n    %% Client\n\n    class DecoratorDP {\n        +main(String[] args)\n    }\n\n    %% Relationships\n\n    Coffee &lt;|.. SimpleCoffee : implements\n    Coffee &lt;|.. Espresso : implements\n    Coffee &lt;|.. ColdCoffee : implements\n\n    Coffee &lt;|.. CoffeeDecorator : implements\n    CoffeeDecorator &lt;|-- MilkDecorator : extends\n    CoffeeDecorator &lt;|-- SugarDecorator : extends\n    CoffeeDecorator &lt;|-- WhippedCreamDecorator : extends\n\n    CoffeeDecorator --&gt; Coffee : wraps\n\n    DecoratorDP --&gt; Coffee : uses\n&quot;&#xa;}" id="2">
                    <mxCell style="shape=image;noLabel=1;verticalAlign=top;imageAspect=1;image=data:image/svg+xml,PHN2ZyBhcmlhLXJvbGVkZXNjcmlwdGlvbj0iY2xhc3MiIHJvbGU9ImdyYXBoaWNzLWRvY3VtZW50IGRvY3VtZW50IiB2aWV3Qm94PSIwIDAgMTQ3OS4wNjU2NzM4MjgxMjUgODk5LjIwMDA3MzI0MjE4NzUiIHN0eWxlPSJtYXgtd2lkdGg6IDE0NzkuMDY1NjczODI4MTI1cHg7IiBjbGFzcz0iY2xhc3NEaWFncmFtIiB4bWxucz0iaHR0cDovL3d3dy53My5vcmcvMjAwMC9zdmciIHdpZHRoPSIxMDAlIiBpZD0iZ2VNZXJtYWlkT3V0cHV0LTE3NTMxMDk3MzMxMjYiPjxzdHlsZT4jZ2VNZXJtYWlkT3V0cHV0LTE3NTMxMDk3MzMxMjZ7Zm9udC1mYW1pbHk6InRyZWJ1Y2hldCBtcyIsdmVyZGFuYSxhcmlhbCxzYW5zLXNlcmlmO2ZvbnQtc2l6ZToxNnB4O2ZpbGw6IzAwMDAwMDt9I2dlTWVybWFpZE91dHB1dC0xNzUzMTA5NzMzMTI2IC5lcnJvci1pY29ue2ZpbGw6IzU1MjIyMjt9I2dlTWVybWFpZE91dHB1dC0xNzUzMTA5NzMzMTI2IC5lcnJvci10ZXh0e2ZpbGw6IzU1MjIyMjtzdHJva2U6IzU1MjIyMjt9I2dlTWVybWFpZE91dHB1dC0xNzUzMTA5NzMzMTI2IC5lZGdlLXRoaWNrbmVzcy1ub3JtYWx7c3Ryb2tlLXdpZHRoOjFweDt9I2dlTWVybWFpZE91dHB1dC0xNzUzMTA5NzMzMTI2IC5lZGdlLXRoaWNrbmVzcy10aGlja3tzdHJva2Utd2lkdGg6My41cHg7fSNnZU1lcm1haWRPdXRwdXQtMTc1MzEwOTczMzEyNiAuZWRnZS1wYXR0ZXJuLXNvbGlke3N0cm9rZS1kYXNoYXJyYXk6MDt9I2dlTWVybWFpZE91dHB1dC0xNzUzMTA5NzMzMTI2IC5lZGdlLXRoaWNrbmVzcy1pbnZpc2libGV7c3Ryb2tlLXdpZHRoOjA7ZmlsbDpub25lO30jZ2VNZXJtYWlkT3V0cHV0LTE3NTMxMDk3MzMxMjYgLmVkZ2UtcGF0dGVybi1kYXNoZWR7c3Ryb2tlLWRhc2hhcnJheTozO30jZ2VNZXJtYWlkT3V0cHV0LTE3NTMxMDk3MzMxMjYgLmVkZ2UtcGF0dGVybi1kb3R0ZWR7c3Ryb2tlLWRhc2hhcnJheToyO30jZ2VNZXJtYWlkT3V0cHV0LTE3NTMxMDk3MzMxMjYgLm1hcmtlcntmaWxsOiM2NjY7c3Ryb2tlOiM2NjY7fSNnZU1lcm1haWRPdXRwdXQtMTc1MzEwOTczMzEyNiAubWFya2VyLmNyb3Nze3N0cm9rZTojNjY2O30jZ2VNZXJtYWlkT3V0cHV0LTE3NTMxMDk3MzMxMjYgc3Zne2ZvbnQtZmFtaWx5OiJ0cmVidWNoZXQgbXMiLHZlcmRhbmEsYXJpYWwsc2Fucy1zZXJpZjtmb250LXNpemU6MTZweDt9I2dlTWVybWFpZE91dHB1dC0xNzUzMTA5NzMzMTI2IHB7bWFyZ2luOjA7fSNnZU1lcm1haWRPdXRwdXQtMTc1MzEwOTczMzEyNiBnLmNsYXNzR3JvdXAgdGV4dHtmaWxsOiM5OTk7c3Ryb2tlOm5vbmU7Zm9udC1mYW1pbHk6InRyZWJ1Y2hldCBtcyIsdmVyZGFuYSxhcmlhbCxzYW5zLXNlcmlmO2ZvbnQtc2l6ZToxMHB4O30jZ2VNZXJtYWlkT3V0cHV0LTE3NTMxMDk3MzMxMjYgZy5jbGFzc0dyb3VwIHRleHQgLnRpdGxle2ZvbnQtd2VpZ2h0OmJvbGRlcjt9I2dlTWVybWFpZE91dHB1dC0xNzUzMTA5NzMzMTI2IC5ub2RlTGFiZWwsI2dlTWVybWFpZE91dHB1dC0xNzUzMTA5NzMzMTI2IC5lZGdlTGFiZWx7Y29sb3I6IzExMTExMTt9I2dlTWVybWFpZE91dHB1dC0xNzUzMTA5NzMzMTI2IC5lZGdlTGFiZWwgLmxhYmVsIHJlY3R7ZmlsbDojZWVlO30jZ2VNZXJtYWlkT3V0cHV0LTE3NTMxMDk3MzMxMjYgLmxhYmVsIHRleHR7ZmlsbDojMTExMTExO30jZ2VNZXJtYWlkT3V0cHV0LTE3NTMxMDk3MzMxMjYgLmxhYmVsQmtne2JhY2tncm91bmQ6I2VlZTt9I2dlTWVybWFpZE91dHB1dC0xNzUzMTA5NzMzMTI2IC5lZGdlTGFiZWwgLmxhYmVsIHNwYW57YmFja2dyb3VuZDojZWVlO30jZ2VNZXJtYWlkT3V0cHV0LTE3NTMxMDk3MzMxMjYgLmNsYXNzVGl0bGV7Zm9udC13ZWlnaHQ6Ym9sZGVyO30jZ2VNZXJtYWlkT3V0cHV0LTE3NTMxMDk3MzMxMjYgLm5vZGUgcmVjdCwjZ2VNZXJtYWlkT3V0cHV0LTE3NTMxMDk3MzMxMjYgLm5vZGUgY2lyY2xlLCNnZU1lcm1haWRPdXRwdXQtMTc1MzEwOTczMzEyNiAubm9kZSBlbGxpcHNlLCNnZU1lcm1haWRPdXRwdXQtMTc1MzEwOTczMzEyNiAubm9kZSBwb2x5Z29uLCNnZU1lcm1haWRPdXRwdXQtMTc1MzEwOTczMzEyNiAubm9kZSBwYXRoe2ZpbGw6I2VlZTtzdHJva2U6Izk5OTtzdHJva2Utd2lkdGg6MXB4O30jZ2VNZXJtYWlkT3V0cHV0LTE3NTMxMDk3MzMxMjYgLmRpdmlkZXJ7c3Ryb2tlOiM5OTk7c3Ryb2tlLXdpZHRoOjE7fSNnZU1lcm1haWRPdXRwdXQtMTc1MzEwOTczMzEyNiBnLmNsaWNrYWJsZXtjdXJzb3I6cG9pbnRlcjt9I2dlTWVybWFpZE91dHB1dC0xNzUzMTA5NzMzMTI2IGcuY2xhc3NHcm91cCByZWN0e2ZpbGw6I2VlZTtzdHJva2U6Izk5OTt9I2dlTWVybWFpZE91dHB1dC0xNzUzMTA5NzMzMTI2IGcuY2xhc3NHcm91cCBsaW5le3N0cm9rZTojOTk5O3N0cm9rZS13aWR0aDoxO30jZ2VNZXJtYWlkT3V0cHV0LTE3NTMxMDk3MzMxMjYgLmNsYXNzTGFiZWwgLmJveHtzdHJva2U6bm9uZTtzdHJva2Utd2lkdGg6MDtmaWxsOiNlZWU7b3BhY2l0eTowLjU7fSNnZU1lcm1haWRPdXRwdXQtMTc1MzEwOTczMzEyNiAuY2xhc3NMYWJlbCAubGFiZWx7ZmlsbDojOTk5O2ZvbnQtc2l6ZToxMHB4O30jZ2VNZXJtYWlkT3V0cHV0LTE3NTMxMDk3MzMxMjYgLnJlbGF0aW9ue3N0cm9rZTojNjY2O3N0cm9rZS13aWR0aDoxO2ZpbGw6bm9uZTt9I2dlTWVybWFpZE91dHB1dC0xNzUzMTA5NzMzMTI2IC5kYXNoZWQtbGluZXtzdHJva2UtZGFzaGFycmF5OjM7fSNnZU1lcm1haWRPdXRwdXQtMTc1MzEwOTczMzEyNiAuZG90dGVkLWxpbmV7c3Ryb2tlLWRhc2hhcnJheToxIDI7fSNnZU1lcm1haWRPdXRwdXQtMTc1MzEwOTczMzEyNiAjY29tcG9zaXRpb25TdGFydCwjZ2VNZXJtYWlkT3V0cHV0LTE3NTMxMDk3MzMxMjYgLmNvbXBvc2l0aW9ue2ZpbGw6IzY2NiFpbXBvcnRhbnQ7c3Ryb2tlOiM2NjYhaW1wb3J0YW50O3N0cm9rZS13aWR0aDoxO30jZ2VNZXJtYWlkT3V0cHV0LTE3NTMxMDk3MzMxMjYgI2NvbXBvc2l0aW9uRW5kLCNnZU1lcm1haWRPdXRwdXQtMTc1MzEwOTczMzEyNiAuY29tcG9zaXRpb257ZmlsbDojNjY2IWltcG9ydGFudDtzdHJva2U6IzY2NiFpbXBvcnRhbnQ7c3Ryb2tlLXdpZHRoOjE7fSNnZU1lcm1haWRPdXRwdXQtMTc1MzEwOTczMzEyNiAjZGVwZW5kZW5jeVN0YXJ0LCNnZU1lcm1haWRPdXRwdXQtMTc1MzEwOTczMzEyNiAuZGVwZW5kZW5jeXtmaWxsOiM2NjYhaW1wb3J0YW50O3N0cm9rZTojNjY2IWltcG9ydGFudDtzdHJva2Utd2lkdGg6MTt9I2dlTWVybWFpZE91dHB1dC0xNzUzMTA5NzMzMTI2ICNkZXBlbmRlbmN5U3RhcnQsI2dlTWVybWFpZE91dHB1dC0xNzUzMTA5NzMzMTI2IC5kZXBlbmRlbmN5e2ZpbGw6IzY2NiFpbXBvcnRhbnQ7c3Ryb2tlOiM2NjYhaW1wb3J0YW50O3N0cm9rZS13aWR0aDoxO30jZ2VNZXJtYWlkT3V0cHV0LTE3NTMxMDk3MzMxMjYgI2V4dGVuc2lvblN0YXJ0LCNnZU1lcm1haWRPdXRwdXQtMTc1MzEwOTczMzEyNiAuZXh0ZW5zaW9ue2ZpbGw6dHJhbnNwYXJlbnQhaW1wb3J0YW50O3N0cm9rZTojNjY2IWltcG9ydGFudDtzdHJva2Utd2lkdGg6MTt9I2dlTWVybWFpZE91dHB1dC0xNzUzMTA5NzMzMTI2ICNleHRlbnNpb25FbmQsI2dlTWVybWFpZE91dHB1dC0xNzUzMTA5NzMzMTI2IC5leHRlbnNpb257ZmlsbDp0cmFuc3BhcmVudCFpbXBvcnRhbnQ7c3Ryb2tlOiM2NjYhaW1wb3J0YW50O3N0cm9rZS13aWR0aDoxO30jZ2VNZXJtYWlkT3V0cHV0LTE3NTMxMDk3MzMxMjYgI2FnZ3JlZ2F0aW9uU3RhcnQsI2dlTWVybWFpZE91dHB1dC0xNzUzMTA5NzMzMTI2IC5hZ2dyZWdhdGlvbntmaWxsOnRyYW5zcGFyZW50IWltcG9ydGFudDtzdHJva2U6IzY2NiFpbXBvcnRhbnQ7c3Ryb2tlLXdpZHRoOjE7fSNnZU1lcm1haWRPdXRwdXQtMTc1MzEwOTczMzEyNiAjYWdncmVnYXRpb25FbmQsI2dlTWVybWFpZE91dHB1dC0xNzUzMTA5NzMzMTI2IC5hZ2dyZWdhdGlvbntmaWxsOnRyYW5zcGFyZW50IWltcG9ydGFudDtzdHJva2U6IzY2NiFpbXBvcnRhbnQ7c3Ryb2tlLXdpZHRoOjE7fSNnZU1lcm1haWRPdXRwdXQtMTc1MzEwOTczMzEyNiAjbG9sbGlwb3BTdGFydCwjZ2VNZXJtYWlkT3V0cHV0LTE3NTMxMDk3MzMxMjYgLmxvbGxpcG9we2ZpbGw6I2VlZSFpbXBvcnRhbnQ7c3Ryb2tlOiM2NjYhaW1wb3J0YW50O3N0cm9rZS13aWR0aDoxO30jZ2VNZXJtYWlkT3V0cHV0LTE3NTMxMDk3MzMxMjYgI2xvbGxpcG9wRW5kLCNnZU1lcm1haWRPdXRwdXQtMTc1MzEwOTczMzEyNiAubG9sbGlwb3B7ZmlsbDojZWVlIWltcG9ydGFudDtzdHJva2U6IzY2NiFpbXBvcnRhbnQ7c3Ryb2tlLXdpZHRoOjE7fSNnZU1lcm1haWRPdXRwdXQtMTc1MzEwOTczMzEyNiAuZWRnZVRlcm1pbmFsc3tmb250LXNpemU6MTFweDtsaW5lLWhlaWdodDppbml0aWFsO30jZ2VNZXJtYWlkT3V0cHV0LTE3NTMxMDk3MzMxMjYgLmNsYXNzVGl0bGVUZXh0e3RleHQtYW5jaG9yOm1pZGRsZTtmb250LXNpemU6MThweDtmaWxsOiMwMDAwMDA7fSNnZU1lcm1haWRPdXRwdXQtMTc1MzEwOTczMzEyNiA6cm9vdHstLW1lcm1haWQtZm9udC1mYW1pbHk6InRyZWJ1Y2hldCBtcyIsdmVyZGFuYSxhcmlhbCxzYW5zLXNlcmlmO308L3N0eWxlPjxnPjxkZWZzPjxtYXJrZXIgb3JpZW50PSJhdXRvIiBtYXJrZXJIZWlnaHQ9IjI0MCIgbWFya2VyV2lkdGg9IjE5MCIgcmVmWT0iNyIgcmVmWD0iMTgiIGNsYXNzPSJtYXJrZXIgYWdncmVnYXRpb24gY2xhc3MiIGlkPSJnZU1lcm1haWRPdXRwdXQtMTc1MzEwOTczMzEyNl9jbGFzcy1hZ2dyZWdhdGlvblN0YXJ0Ij48cGF0aCBkPSJNIDE4LDcgTDksMTMgTDEsNyBMOSwxIFoiPjwvcGF0aD48L21hcmtlcj48L2RlZnM+PGRlZnM+PG1hcmtlciBvcmllbnQ9ImF1dG8iIG1hcmtlckhlaWdodD0iMjgiIG1hcmtlcldpZHRoPSIyMCIgcmVmWT0iNyIgcmVmWD0iMSIgY2xhc3M9Im1hcmtlciBhZ2dyZWdhdGlvbiBjbGFzcyIgaWQ9ImdlTWVybWFpZE91dHB1dC0xNzUzMTA5NzMzMTI2X2NsYXNzLWFnZ3JlZ2F0aW9uRW5kIj48cGF0aCBkPSJNIDE4LDcgTDksMTMgTDEsNyBMOSwxIFoiPjwvcGF0aD48L21hcmtlcj48L2RlZnM+PGRlZnM+PG1hcmtlciBvcmllbnQ9ImF1dG8iIG1hcmtlckhlaWdodD0iMjQwIiBtYXJrZXJXaWR0aD0iMTkwIiByZWZZPSI3IiByZWZYPSIxOCIgY2xhc3M9Im1hcmtlciBleHRlbnNpb24gY2xhc3MiIGlkPSJnZU1lcm1haWRPdXRwdXQtMTc1MzEwOTczMzEyNl9jbGFzcy1leHRlbnNpb25TdGFydCI+PHBhdGggZD0iTSAxLDcgTDE4LDEzIFYgMSBaIj48L3BhdGg+PC9tYXJrZXI+PC9kZWZzPjxkZWZzPjxtYXJrZXIgb3JpZW50PSJhdXRvIiBtYXJrZXJIZWlnaHQ9IjI4IiBtYXJrZXJXaWR0aD0iMjAiIHJlZlk9IjciIHJlZlg9IjEiIGNsYXNzPSJtYXJrZXIgZXh0ZW5zaW9uIGNsYXNzIiBpZD0iZ2VNZXJtYWlkT3V0cHV0LTE3NTMxMDk3MzMxMjZfY2xhc3MtZXh0ZW5zaW9uRW5kIj48cGF0aCBkPSJNIDEsMSBWIDEzIEwxOCw3IFoiPjwvcGF0aD48L21hcmtlcj48L2RlZnM+PGRlZnM+PG1hcmtlciBvcmllbnQ9ImF1dG8iIG1hcmtlckhlaWdodD0iMjQwIiBtYXJrZXJXaWR0aD0iMTkwIiByZWZZPSI3IiByZWZYPSIxOCIgY2xhc3M9Im1hcmtlciBjb21wb3NpdGlvbiBjbGFzcyIgaWQ9ImdlTWVybWFpZE91dHB1dC0xNzUzMTA5NzMzMTI2X2NsYXNzLWNvbXBvc2l0aW9uU3RhcnQiPjxwYXRoIGQ9Ik0gMTgsNyBMOSwxMyBMMSw3IEw5LDEgWiI+PC9wYXRoPjwvbWFya2VyPjwvZGVmcz48ZGVmcz48bWFya2VyIG9yaWVudD0iYXV0byIgbWFya2VySGVpZ2h0PSIyOCIgbWFya2VyV2lkdGg9IjIwIiByZWZZPSI3IiByZWZYPSIxIiBjbGFzcz0ibWFya2VyIGNvbXBvc2l0aW9uIGNsYXNzIiBpZD0iZ2VNZXJtYWlkT3V0cHV0LTE3NTMxMDk3MzMxMjZfY2xhc3MtY29tcG9zaXRpb25FbmQiPjxwYXRoIGQ9Ik0gMTgsNyBMOSwxMyBMMSw3IEw5LDEgWiI+PC9wYXRoPjwvbWFya2VyPjwvZGVmcz48ZGVmcz48bWFya2VyIG9yaWVudD0iYXV0byIgbWFya2VySGVpZ2h0PSIyNDAiIG1hcmtlcldpZHRoPSIxOTAiIHJlZlk9IjciIHJlZlg9IjYiIGNsYXNzPSJtYXJrZXIgZGVwZW5kZW5jeSBjbGFzcyIgaWQ9ImdlTWVybWFpZE91dHB1dC0xNzUzMTA5NzMzMTI2X2NsYXNzLWRlcGVuZGVuY3lTdGFydCI+PHBhdGggZD0iTSA1LDcgTDksMTMgTDEsNyBMOSwxIFoiPjwvcGF0aD48L21hcmtlcj48L2RlZnM+PGRlZnM+PG1hcmtlciBvcmllbnQ9ImF1dG8iIG1hcmtlckhlaWdodD0iMjgiIG1hcmtlcldpZHRoPSIyMCIgcmVmWT0iNyIgcmVmWD0iMTMiIGNsYXNzPSJtYXJrZXIgZGVwZW5kZW5jeSBjbGFzcyIgaWQ9ImdlTWVybWFpZE91dHB1dC0xNzUzMTA5NzMzMTI2X2NsYXNzLWRlcGVuZGVuY3lFbmQiPjxwYXRoIGQ9Ik0gMTgsNyBMOSwxMyBMMTQsNyBMOSwxIFoiPjwvcGF0aD48L21hcmtlcj48L2RlZnM+PGRlZnM+PG1hcmtlciBvcmllbnQ9ImF1dG8iIG1hcmtlckhlaWdodD0iMjQwIiBtYXJrZXJXaWR0aD0iMTkwIiByZWZZPSI3IiByZWZYPSIxMyIgY2xhc3M9Im1hcmtlciBsb2xsaXBvcCBjbGFzcyIgaWQ9ImdlTWVybWFpZE91dHB1dC0xNzUzMTA5NzMzMTI2X2NsYXNzLWxvbGxpcG9wU3RhcnQiPjxjaXJjbGUgcj0iNiIgY3k9IjciIGN4PSI3IiBmaWxsPSJ0cmFuc3BhcmVudCIgc3Ryb2tlPSJibGFjayI+PC9jaXJjbGU+PC9tYXJrZXI+PC9kZWZzPjxkZWZzPjxtYXJrZXIgb3JpZW50PSJhdXRvIiBtYXJrZXJIZWlnaHQ9IjI0MCIgbWFya2VyV2lkdGg9IjE5MCIgcmVmWT0iNyIgcmVmWD0iMSIgY2xhc3M9Im1hcmtlciBsb2xsaXBvcCBjbGFzcyIgaWQ9ImdlTWVybWFpZE91dHB1dC0xNzUzMTA5NzMzMTI2X2NsYXNzLWxvbGxpcG9wRW5kIj48Y2lyY2xlIHI9IjYiIGN5PSI3IiBjeD0iNyIgZmlsbD0idHJhbnNwYXJlbnQiIHN0cm9rZT0iYmxhY2siPjwvY2lyY2xlPjwvbWFya2VyPjwvZGVmcz48ZyBjbGFzcz0icm9vdCI+PGcgY2xhc3M9ImNsdXN0ZXJzIj48L2c+PGcgY2xhc3M9ImVkZ2VQYXRocyI+PHBhdGggbWFya2VyLXN0YXJ0PSJ1cmwoI2dlTWVybWFpZE91dHB1dC0xNzUzMTA5NzMzMTI2X2NsYXNzLWV4dGVuc2lvblN0YXJ0KSIgc3R5bGU9IjsiIGNsYXNzPSJlZGdlLXRoaWNrbmVzcy1ub3JtYWwgZWRnZS1wYXR0ZXJuLWRhc2hlZCByZWxhdGlvbiIgaWQ9ImlkX0NvZmZlZV9TaW1wbGVDb2ZmZWVfMSIgZD0iTTM3Ni41OSwzMzguNzExTDMzNi4zODUsMzUxLjY5MkMyOTYuMTgxLDM2NC42NzQsMjE1Ljc3MiwzOTAuNjM3LDE3NS41NjcsNDEzLjE1MkMxMzUuMzYzLDQzNS42NjcsMTM1LjM2Myw0NTQuNzMzLDEzNS4zNjMsNDY0LjI2N0wxMzUuMzYzLDQ3My44Ij48L3BhdGg+PHBhdGggbWFya2VyLXN0YXJ0PSJ1cmwoI2dlTWVybWFpZE91dHB1dC0xNzUzMTA5NzMzMTI2X2NsYXNzLWV4dGVuc2lvblN0YXJ0KSIgc3R5bGU9IjsiIGNsYXNzPSJlZGdlLXRoaWNrbmVzcy1ub3JtYWwgZWRnZS1wYXR0ZXJuLWRhc2hlZCByZWxhdGlvbiIgaWQ9ImlkX0NvZmZlZV9Fc3ByZXNzb18yIiBkPSJNNDQ2LjI1MiwzOTUuMTg2TDQ0My43NzQsMzk4Ljc1NUM0NDEuMjk2LDQwMi4zMjQsNDM2LjM0LDQwOS40NjIsNDMzLjg2Miw0MjIuNTY0QzQzMS4zODQsNDM1LjY2Nyw0MzEuMzg0LDQ1NC43MzMsNDMxLjM4NCw0NjQuMjY3TDQzMS4zODQsNDczLjgiPjwvcGF0aD48cGF0aCBtYXJrZXItc3RhcnQ9InVybCgjZ2VNZXJtYWlkT3V0cHV0LTE3NTMxMDk3MzMxMjZfY2xhc3MtZXh0ZW5zaW9uU3RhcnQpIiBzdHlsZT0iOyIgY2xhc3M9ImVkZ2UtdGhpY2tuZXNzLW5vcm1hbCBlZGdlLXBhdHRlcm4tZGFzaGVkIHJlbGF0aW9uIiBpZD0iaWRfQ29mZmVlX0NvbGRDb2ZmZWVfMyIgZD0iTTY1NS41NzEsMzc2LjIzNEw2NjYuODMyLDM4Mi45NjJDNjc4LjA5MywzODkuNjksNzAwLjYxNSw0MDMuMTQ1LDcxMS44NzYsNDE5LjQwNkM3MjMuMTM4LDQzNS42NjcsNzIzLjEzOCw0NTQuNzMzLDcyMy4xMzgsNDY0LjI2N0w3MjMuMTM4LDQ3My44Ij48L3BhdGg+PHBhdGggbWFya2VyLXN0YXJ0PSJ1cmwoI2dlTWVybWFpZE91dHB1dC0xNzUzMTA5NzMzMTI2X2NsYXNzLWV4dGVuc2lvblN0YXJ0KSIgc3R5bGU9IjsiIGNsYXNzPSJlZGdlLXRoaWNrbmVzcy1ub3JtYWwgZWRnZS1wYXR0ZXJuLWRhc2hlZCByZWxhdGlvbiIgaWQ9ImlkX0NvZmZlZV9Db2ZmZWVEZWNvcmF0b3JfNCIgZD0iTTY1Ny40MTQsMzMzLjkyNEw3MDUuMTg1LDM0Ny43MDRDNzUyLjk1NywzNjEuNDgzLDg0OC41LDM4OS4wNDEsOTAxLjQzNSw0MDguODU0Qzk1NC4zNyw0MjguNjY3LDk2NC42OTYsNDQwLjczMyw5NjkuODU5LDQ0Ni43NjdMOTc1LjAyMiw0NTIuOCI+PC9wYXRoPjxwYXRoIG1hcmtlci1zdGFydD0idXJsKCNnZU1lcm1haWRPdXRwdXQtMTc1MzEwOTczMzEyNl9jbGFzcy1leHRlbnNpb25TdGFydCkiIHN0eWxlPSI7IiBjbGFzcz0iZWRnZS10aGlja25lc3Mtbm9ybWFsIGVkZ2UtcGF0dGVybi1zb2xpZCByZWxhdGlvbiIgaWQ9ImlkX0NvZmZlZURlY29yYXRvcl9NaWxrRGVjb3JhdG9yXzUiIGQ9Ik04NzguNzE2LDU5MS4wOTJMODE1LjQ4Niw2MDYuMDc3Qzc1Mi4yNTYsNjIxLjA2MSw2MjUuNzk1LDY1MS4wMzEsNTYyLjU2NSw2NzIuMDQ5QzQ5OS4zMzQsNjkzLjA2Nyw0OTkuMzM0LDcwNS4xMzMsNDk5LjMzNCw3MTEuMTY3TDQ5OS4zMzQsNzE3LjIiPjwvcGF0aD48cGF0aCBtYXJrZXItc3RhcnQ9InVybCgjZ2VNZXJtYWlkT3V0cHV0LTE3NTMxMDk3MzMxMjZfY2xhc3MtZXh0ZW5zaW9uU3RhcnQpIiBzdHlsZT0iOyIgY2xhc3M9ImVkZ2UtdGhpY2tuZXNzLW5vcm1hbCBlZGdlLXBhdHRlcm4tc29saWQgcmVsYXRpb24iIGlkPSJpZF9Db2ZmZWVEZWNvcmF0b3JfU3VnYXJEZWNvcmF0b3JfNiIgZD0iTTg5Mi4yNzEsNjU0LjUxNEw4ODUuMzg1LDY1OC45MjlDODc4LjQ5OSw2NjMuMzQzLDg2NC43MjgsNjcyLjE3MSw4NTcuODQyLDY4Mi42MTlDODUwLjk1Niw2OTMuMDY3LDg1MC45NTYsNzA1LjEzMyw4NTAuOTU2LDcxMS4xNjdMODUwLjk1Niw3MTcuMiI+PC9wYXRoPjxwYXRoIG1hcmtlci1zdGFydD0idXJsKCNnZU1lcm1haWRPdXRwdXQtMTc1MzEwOTczMzEyNl9jbGFzcy1leHRlbnNpb25TdGFydCkiIHN0eWxlPSI7IiBjbGFzcz0iZWRnZS10aGlja25lc3Mtbm9ybWFsIGVkZ2UtcGF0dGVybi1zb2xpZCByZWxhdGlvbiIgaWQ9ImlkX0NvZmZlZURlY29yYXRvcl9XaGlwcGVkQ3JlYW1EZWNvcmF0b3JfNyIgZD0iTTEyMjIuMDc5LDY1NC41MTRMMTIyOC45NjUsNjU4LjkyOUMxMjM1Ljg1MSw2NjMuMzQzLDEyNDkuNjIyLDY3Mi4xNzEsMTI1Ni41MDgsNjgyLjYxOUMxMjYzLjM5NCw2OTMuMDY3LDEyNjMuMzk0LDcwNS4xMzMsMTI2My4zOTQsNzExLjE2N0wxMjYzLjM5NCw3MTcuMiI+PC9wYXRoPjxwYXRoIG1hcmtlci1lbmQ9InVybCgjZ2VNZXJtYWlkT3V0cHV0LTE3NTMxMDk3MzMxMjZfY2xhc3MtZGVwZW5kZW5jeUVuZCkiIHN0eWxlPSI7IiBjbGFzcz0iZWRnZS10aGlja25lc3Mtbm9ybWFsIGVkZ2UtcGF0dGVybi1zb2xpZCByZWxhdGlvbiIgaWQ9ImlkX0NvZmZlZURlY29yYXRvcl9Db2ZmZWVfOCIgZD0iTTEwODguODU0LDQ1Mi44TDEwOTAuODQ1LDQ0Ni43NjdDMTA5Mi44MzYsNDQwLjczMywxMDk2LjgxOCw0MjguNjY3LDEwMjMuMDA3LDQwNi42MzlDOTQ5LjE5NywzODQuNjExLDc5Ny41OTMsMzUyLjYyMyw3MjEuNzkxLDMzNi42MjhMNjQ1Ljk5LDMyMC42MzQiPjwvcGF0aD48cGF0aCBtYXJrZXItZW5kPSJ1cmwoI2dlTWVybWFpZE91dHB1dC0xNzUzMTA5NzMzMTI2X2NsYXNzLWRlcGVuZGVuY3lFbmQpIiBzdHlsZT0iOyIgY2xhc3M9ImVkZ2UtdGhpY2tuZXNzLW5vcm1hbCBlZGdlLXBhdHRlcm4tc29saWQgcmVsYXRpb24iIGlkPSJpZF9EZWNvcmF0b3JEUF9Db2ZmZWVfOSIgZD0iTTUxNi45MTksMTM0TDUxNi45MTksMTQwLjAzM0M1MTYuOTE5LDE0Ni4wNjcsNTE2LjkxOSwxNTguMTMzLDUxNi45MTksMTY5LjJDNTE2LjkxOSwxODAuMjY3LDUxNi45MTksMTkwLjMzMyw1MTYuOTE5LDE5NS4zNjdMNTE2LjkxOSwyMDAuNCI+PC9wYXRoPjwvZz48ZyBjbGFzcz0iZWRnZUxhYmVscyI+PGcgdHJhbnNmb3JtPSJ0cmFuc2xhdGUoMTM1LjM2MjUwMzA1MTc1NzgsIDQxNi41OTk5OTk0Mjc3OTU0KSIgY2xhc3M9ImVkZ2VMYWJlbCI+PGcgdHJhbnNmb3JtPSJ0cmFuc2xhdGUoLTQzLjg4NzUwMDc2MjkzOTQ1LCAtMTEuMTk5OTk5ODA5MjY1MTM3KSIgY2xhc3M9ImxhYmVsIj48Zz48cmVjdCBoZWlnaHQ9IjIyLjM5OTk5OTYxODUzMDI3MyIgd2lkdGg9Ijg3Ljc3NTAwMTUyNTg3ODkiIHk9Ii0xLjE5OTk5OTk4ODA3OTA3MSIgeD0iLTIiIHN0eWxlPSI7ZGlzcGxheTogaW5saW5lLWJsb2NrIiBjbGFzcz0iYmFja2dyb3VuZCI+PC9yZWN0Pjx0ZXh0IHN0eWxlPSI7ZGlzcGxheTogaW5saW5lLWJsb2NrIiB5PSItMTAuMSI+PHRzcGFuIGR5PSIxLjFlbSIgeT0iLTAuMWVtIiB4PSIwIiBjbGFzcz0idGV4dC1vdXRlci10c3BhbiI+PHRzcGFuIGZvbnQtd2VpZ2h0PSJub3JtYWwiIGNsYXNzPSJ0ZXh0LWlubmVyLXRzcGFuIiBmb250LXN0eWxlPSJub3JtYWwiPmltcGxlbWVudHM8L3RzcGFuPjwvdHNwYW4+PC90ZXh0PjwvZz48L2c+PC9nPjxnIHRyYW5zZm9ybT0idHJhbnNsYXRlKDQzMS4zODQzODQxNTUyNzM0NCwgNDE2LjU5OTk5OTQyNzc5NTQpIiBjbGFzcz0iZWRnZUxhYmVsIj48ZyB0cmFuc2Zvcm09InRyYW5zbGF0ZSgtNDMuODg3NTAwNzYyOTM5NDUsIC0xMS4xOTk5OTk4MDkyNjUxMzcpIiBjbGFzcz0ibGFiZWwiPjxnPjxyZWN0IGhlaWdodD0iMjIuMzk5OTk5NjE4NTMwMjczIiB3aWR0aD0iODcuNzc1MDAxNTI1ODc4OSIgeT0iLTEuMTk5OTk5OTg4MDc5MDcxIiB4PSItMiIgc3R5bGU9IjtkaXNwbGF5OiBpbmxpbmUtYmxvY2siIGNsYXNzPSJiYWNrZ3JvdW5kIj48L3JlY3Q+PHRleHQgc3R5bGU9IjtkaXNwbGF5OiBpbmxpbmUtYmxvY2siIHk9Ii0xMC4xIj48dHNwYW4gZHk9IjEuMWVtIiB5PSItMC4xZW0iIHg9IjAiIGNsYXNzPSJ0ZXh0LW91dGVyLXRzcGFuIj48dHNwYW4gZm9udC13ZWlnaHQ9Im5vcm1hbCIgY2xhc3M9InRleHQtaW5uZXItdHNwYW4iIGZvbnQtc3R5bGU9Im5vcm1hbCI+aW1wbGVtZW50czwvdHNwYW4+PC90c3Bhbj48L3RleHQ+PC9nPjwvZz48L2c+PGcgdHJhbnNmb3JtPSJ0cmFuc2xhdGUoNzIzLjEzNzUxMjIwNzAzMTIsIDQxNi41OTk5OTk0Mjc3OTU0KSIgY2xhc3M9ImVkZ2VMYWJlbCI+PGcgdHJhbnNmb3JtPSJ0cmFuc2xhdGUoLTQzLjg4NzUwMDc2MjkzOTQ1LCAtMTEuMTk5OTk5ODA5MjY1MTM3KSIgY2xhc3M9ImxhYmVsIj48Zz48cmVjdCBoZWlnaHQ9IjIyLjM5OTk5OTYxODUzMDI3MyIgd2lkdGg9Ijg3Ljc3NTAwMTUyNTg3ODkiIHk9Ii0xLjE5OTk5OTk4ODA3OTA3MSIgeD0iLTIiIHN0eWxlPSI7ZGlzcGxheTogaW5saW5lLWJsb2NrIiBjbGFzcz0iYmFja2dyb3VuZCI+PC9yZWN0Pjx0ZXh0IHN0eWxlPSI7ZGlzcGxheTogaW5saW5lLWJsb2NrIiB5PSItMTAuMSI+PHRzcGFuIGR5PSIxLjFlbSIgeT0iLTAuMWVtIiB4PSIwIiBjbGFzcz0idGV4dC1vdXRlci10c3BhbiI+PHRzcGFuIGZvbnQtd2VpZ2h0PSJub3JtYWwiIGNsYXNzPSJ0ZXh0LWlubmVyLXRzcGFuIiBmb250LXN0eWxlPSJub3JtYWwiPmltcGxlbWVudHM8L3RzcGFuPjwvdHNwYW4+PC90ZXh0PjwvZz48L2c+PC9nPjxnIHRyYW5zZm9ybT0idHJhbnNsYXRlKDk0NC4wNDM3NjYwMjE3Mjg1LCA0MTYuNTk5OTk5NDI3Nzk1NCkiIGNsYXNzPSJlZGdlTGFiZWwiPjxnIHRyYW5zZm9ybT0idHJhbnNsYXRlKC00My44ODc1MDA3NjI5Mzk0NSwgLTExLjE5OTk5OTgwOTI2NTEzNykiIGNsYXNzPSJsYWJlbCI+PGc+PHJlY3QgaGVpZ2h0PSIyMi4zOTk5OTk2MTg1MzAyNzMiIHdpZHRoPSI4Ny43NzUwMDE1MjU4Nzg5IiB5PSItMS4xOTk5OTk5ODgwNzkwNzEiIHg9Ii0yIiBzdHlsZT0iO2Rpc3BsYXk6IGlubGluZS1ibG9jayIgY2xhc3M9ImJhY2tncm91bmQiPjwvcmVjdD48dGV4dCBzdHlsZT0iO2Rpc3BsYXk6IGlubGluZS1ibG9jayIgeT0iLTEwLjEiPjx0c3BhbiBkeT0iMS4xZW0iIHk9Ii0wLjFlbSIgeD0iMCIgY2xhc3M9InRleHQtb3V0ZXItdHNwYW4iPjx0c3BhbiBmb250LXdlaWdodD0ibm9ybWFsIiBjbGFzcz0idGV4dC1pbm5lci10c3BhbiIgZm9udC1zdHlsZT0ibm9ybWFsIj5pbXBsZW1lbnRzPC90c3Bhbj48L3RzcGFuPjwvdGV4dD48L2c+PC9nPjwvZz48ZyB0cmFuc2Zvcm09InRyYW5zbGF0ZSg0OTkuMzM0MzgxMTAzNTE1NiwgNjgwLjk5OTk5OTA0NjMyNTcpIiBjbGFzcz0iZWRnZUxhYmVsIj48ZyB0cmFuc2Zvcm09InRyYW5zbGF0ZSgtMjkuOTc1MDAwMzgxNDY5NzI3LCAtMTEuMTk5OTk5ODA5MjY1MTM3KSIgY2xhc3M9ImxhYmVsIj48Zz48cmVjdCBoZWlnaHQ9IjIyLjM5OTk5OTYxODUzMDI3MyIgd2lkdGg9IjU5Ljk1MDAwMDc2MjkzOTQ1IiB5PSItMS4xOTk5OTk5ODgwNzkwNzEiIHg9Ii0yIiBzdHlsZT0iO2Rpc3BsYXk6IGlubGluZS1ibG9jayIgY2xhc3M9ImJhY2tncm91bmQiPjwvcmVjdD48dGV4dCBzdHlsZT0iO2Rpc3BsYXk6IGlubGluZS1ibG9jayIgeT0iLTEwLjEiPjx0c3BhbiBkeT0iMS4xZW0iIHk9Ii0wLjFlbSIgeD0iMCIgY2xhc3M9InRleHQtb3V0ZXItdHNwYW4iPjx0c3BhbiBmb250LXdlaWdodD0ibm9ybWFsIiBjbGFzcz0idGV4dC1pbm5lci10c3BhbiIgZm9udC1zdHlsZT0ibm9ybWFsIj5leHRlbmRzPC90c3Bhbj48L3RzcGFuPjwvdGV4dD48L2c+PC9nPjwvZz48ZyB0cmFuc2Zvcm09InRyYW5zbGF0ZSg4NTAuOTU2MjY4MzEwNTQ2OSwgNjgwLjk5OTk5OTA0NjMyNTcpIiBjbGFzcz0iZWRnZUxhYmVsIj48ZyB0cmFuc2Zvcm09InRyYW5zbGF0ZSgtMjkuOTc1MDAwMzgxNDY5NzI3LCAtMTEuMTk5OTk5ODA5MjY1MTM3KSIgY2xhc3M9ImxhYmVsIj48Zz48cmVjdCBoZWlnaHQ9IjIyLjM5OTk5OTYxODUzMDI3MyIgd2lkdGg9IjU5Ljk1MDAwMDc2MjkzOTQ1IiB5PSItMS4xOTk5OTk5ODgwNzkwNzEiIHg9Ii0yIiBzdHlsZT0iO2Rpc3BsYXk6IGlubGluZS1ibG9jayIgY2xhc3M9ImJhY2tncm91bmQiPjwvcmVjdD48dGV4dCBzdHlsZT0iO2Rpc3BsYXk6IGlubGluZS1ibG9jayIgeT0iLTEwLjEiPjx0c3BhbiBkeT0iMS4xZW0iIHk9Ii0wLjFlbSIgeD0iMCIgY2xhc3M9InRleHQtb3V0ZXItdHNwYW4iPjx0c3BhbiBmb250LXdlaWdodD0ibm9ybWFsIiBjbGFzcz0idGV4dC1pbm5lci10c3BhbiIgZm9udC1zdHlsZT0ibm9ybWFsIj5leHRlbmRzPC90c3Bhbj48L3RzcGFuPjwvdGV4dD48L2c+PC9nPjwvZz48ZyB0cmFuc2Zvcm09InRyYW5zbGF0ZSgxMjYzLjM5Mzc2ODMxMDU0NjksIDY4MC45OTk5OTkwNDYzMjU3KSIgY2xhc3M9ImVkZ2VMYWJlbCI+PGcgdHJhbnNmb3JtPSJ0cmFuc2xhdGUoLTI5Ljk3NTAwMDM4MTQ2OTcyNywgLTExLjE5OTk5OTgwOTI2NTEzNykiIGNsYXNzPSJsYWJlbCI+PGc+PHJlY3QgaGVpZ2h0PSIyMi4zOTk5OTk2MTg1MzAyNzMiIHdpZHRoPSI1OS45NTAwMDA3NjI5Mzk0NSIgeT0iLTEuMTk5OTk5OTg4MDc5MDcxIiB4PSItMiIgc3R5bGU9IjtkaXNwbGF5OiBpbmxpbmUtYmxvY2siIGNsYXNzPSJiYWNrZ3JvdW5kIj48L3JlY3Q+PHRleHQgc3R5bGU9IjtkaXNwbGF5OiBpbmxpbmUtYmxvY2siIHk9Ii0xMC4xIj48dHNwYW4gZHk9IjEuMWVtIiB5PSItMC4xZW0iIHg9IjAiIGNsYXNzPSJ0ZXh0LW91dGVyLXRzcGFuIj48dHNwYW4gZm9udC13ZWlnaHQ9Im5vcm1hbCIgY2xhc3M9InRleHQtaW5uZXItdHNwYW4iIGZvbnQtc3R5bGU9Im5vcm1hbCI+ZXh0ZW5kczwvdHNwYW4+PC90c3Bhbj48L3RleHQ+PC9nPjwvZz48L2c+PGcgdHJhbnNmb3JtPSJ0cmFuc2xhdGUoMTEwMC44MDAwMTkyNjQyMjEyLCA0MTYuNTk5OTk5NDI3Nzk1NCkiIGNsYXNzPSJlZGdlTGFiZWwiPjxnIHRyYW5zZm9ybT0idHJhbnNsYXRlKC0yMy4zNjI1MDExNDQ0MDkxOCwgLTExLjE5OTk5OTgwOTI2NTEzNykiIGNsYXNzPSJsYWJlbCI+PGc+PHJlY3QgaGVpZ2h0PSIyMi4zOTk5OTk2MTg1MzAyNzMiIHdpZHRoPSI0Ni43MjUwMDIyODg4MTgzNiIgeT0iLTEuMTk5OTk5OTg4MDc5MDcxIiB4PSItMi44MDAwMDAwMTE5MjA5MjkiIHN0eWxlPSI7ZGlzcGxheTogaW5saW5lLWJsb2NrIiBjbGFzcz0iYmFja2dyb3VuZCI+PC9yZWN0Pjx0ZXh0IHN0eWxlPSI7ZGlzcGxheTogaW5saW5lLWJsb2NrIiB5PSItMTAuMSI+PHRzcGFuIGR5PSIxLjFlbSIgeT0iLTAuMWVtIiB4PSIwIiBjbGFzcz0idGV4dC1vdXRlci10c3BhbiI+PHRzcGFuIGZvbnQtd2VpZ2h0PSJub3JtYWwiIGNsYXNzPSJ0ZXh0LWlubmVyLXRzcGFuIiBmb250LXN0eWxlPSJub3JtYWwiPndyYXBzPC90c3Bhbj48L3RzcGFuPjwvdGV4dD48L2c+PC9nPjwvZz48ZyB0cmFuc2Zvcm09InRyYW5zbGF0ZSg1MTYuOTE4NzYyMjA3MDMxMiwgMTcwLjE5OTk5OTgwOTI2NTE0KSIgY2xhc3M9ImVkZ2VMYWJlbCI+PGcgdHJhbnNmb3JtPSJ0cmFuc2xhdGUoLTE3LjIxMjQ5OTYxODUzMDI3MywgLTExLjE5OTk5OTgwOTI2NTEzNykiIGNsYXNzPSJsYWJlbCI+PGc+PHJlY3QgaGVpZ2h0PSIyMi4zOTk5OTk2MTg1MzAyNzMiIHdpZHRoPSIzNC40MjUwMDExNDQ0MDkxOCIgeT0iLTEuMTk5OTk5OTg4MDc5MDcxIiB4PSItMiIgc3R5bGU9IjtkaXNwbGF5OiBpbmxpbmUtYmxvY2siIGNsYXNzPSJiYWNrZ3JvdW5kIj48L3JlY3Q+PHRleHQgc3R5bGU9IjtkaXNwbGF5OiBpbmxpbmUtYmxvY2siIHk9Ii0xMC4xIj48dHNwYW4gZHk9IjEuMWVtIiB5PSItMC4xZW0iIHg9IjAiIGNsYXNzPSJ0ZXh0LW91dGVyLXRzcGFuIj48dHNwYW4gZm9udC13ZWlnaHQ9Im5vcm1hbCIgY2xhc3M9InRleHQtaW5uZXItdHNwYW4iIGZvbnQtc3R5bGU9Im5vcm1hbCI+dXNlczwvdHNwYW4+PC90c3Bhbj48L3RleHQ+PC9nPjwvZz48L2c+PC9nPjxnIGNsYXNzPSJub2RlcyI+PGcgdHJhbnNmb3JtPSJ0cmFuc2xhdGUoNTE2LjkxODc2MjIwNzAzMTIsIDI5My4zOTk5OTk2MTg1MzAzKSIgaWQ9ImNsYXNzSWQtQ29mZmVlLTAiIGNsYXNzPSJub2RlIGRlZmF1bHQiPjxnIGNsYXNzPSJiYXNpYyBsYWJlbC1jb250YWluZXIiPjxwYXRoIHN0eWxlPSIiIGZpbGw9IiNlZWUiIHN0cm9rZS13aWR0aD0iMCIgc3Ryb2tlPSJub25lIiBkPSJNLTEyMy4yMDAwMDQ1Nzc2MzY3MiAtODcgTDEyMy4yMDAwMDQ1Nzc2MzY3MiAtODcgTDEyMy4yMDAwMDQ1Nzc2MzY3MiA4NyBMLTEyMy4yMDAwMDQ1Nzc2MzY3MiA4NyI+PC9wYXRoPjxwYXRoIHN0eWxlPSIiIGZpbGw9Im5vbmUiIHN0cm9rZS13aWR0aD0iMS4zIiBzdHJva2U9IiM5OTkiIGQ9Ik0tMTIzLjIwMDAwNDU3NzYzNjcyIC04NyBDLTUyLjAwOTM4OTUxMjI4NzI2IC04NywgMTkuMTgxMjI1NTUzMDYyMjA1IC04NywgMTIzLjIwMDAwNDU3NzYzNjcyIC04NyBNLTEyMy4yMDAwMDQ1Nzc2MzY3MiAtODcgQy01NC43NzYwMjMzNjg3NzI3OCAtODcsIDEzLjY0Nzk1Nzg0MDA5MTE1MiAtODcsIDEyMy4yMDAwMDQ1Nzc2MzY3MiAtODcgTTEyMy4yMDAwMDQ1Nzc2MzY3MiAtODcgQzEyMy4yMDAwMDQ1Nzc2MzY3MiAtMjkuNjk4MjU2MjI2OTI5MjI1LCAxMjMuMjAwMDA0NTc3NjM2NzIgMjcuNjAzNDg3NTQ2MTQxNTUsIDEyMy4yMDAwMDQ1Nzc2MzY3MiA4NyBNMTIzLjIwMDAwNDU3NzYzNjcyIC04NyBDMTIzLjIwMDAwNDU3NzYzNjcyIC00OS44OTk4OTM3ODU1Mjg3NzUsIDEyMy4yMDAwMDQ1Nzc2MzY3MiAtMTIuNzk5Nzg3NTcxMDU3NTUsIDEyMy4yMDAwMDQ1Nzc2MzY3MiA4NyBNMTIzLjIwMDAwNDU3NzYzNjcyIDg3IEM1MC45MjA4MDI2NDEzODY3MyA4NywgLTIxLjM1ODM5OTI5NDg2MzI2IDg3LCAtMTIzLjIwMDAwNDU3NzYzNjcyIDg3IE0xMjMuMjAwMDA0NTc3NjM2NzIgODcgQzI1LjQzMDUyMzA0NDY5Nzg4IDg3LCAtNzIuMzM4OTU4NDg4MjQwOTYgODcsIC0xMjMuMjAwMDA0NTc3NjM2NzIgODcgTS0xMjMuMjAwMDA0NTc3NjM2NzIgODcgQy0xMjMuMjAwMDA0NTc3NjM2NzIgMzAuMDg0OTk3ODY3MzQ2NjMsIC0xMjMuMjAwMDA0NTc3NjM2NzIgLTI2LjgzMDAwNDI2NTMwNjc0LCAtMTIzLjIwMDAwNDU3NzYzNjcyIC04NyBNLTEyMy4yMDAwMDQ1Nzc2MzY3MiA4NyBDLTEyMy4yMDAwMDQ1Nzc2MzY3MiA0NS41NzUyMjU1NjIxNDI4NCwgLTEyMy4yMDAwMDQ1Nzc2MzY3MiA0LjE1MDQ1MTEyNDI4NTY4MSwgLTEyMy4yMDAwMDQ1Nzc2MzY3MiAtODciPjwvcGF0aD48L2c+PGcgdHJhbnNmb3JtPSJ0cmFuc2xhdGUoLTQxLjE3NDk5OTIzNzA2MDU1LCAtNjMpIiBjbGFzcz0iYW5ub3RhdGlvbi1ncm91cCB0ZXh0Ij48ZyB0cmFuc2Zvcm09InRyYW5zbGF0ZSgwLC0xMikiIHN0eWxlPSIiIGNsYXNzPSJsYWJlbCI+PGZvcmVpZ25PYmplY3QgaGVpZ2h0PSIyNCIgd2lkdGg9IjgyLjM0OTk5ODQ3NDEyMTEiPjxkaXYgc3R5bGU9ImRpc3BsYXk6IHRhYmxlLWNlbGw7IHdoaXRlLXNwYWNlOiBub3dyYXA7IGxpbmUtaGVpZ2h0OiAxLjU7IG1heC13aWR0aDogMTI3cHg7IHRleHQtYWxpZ246IGNlbnRlcjsiIHhtbG5zPSJodHRwOi8vd3d3LnczLm9yZy8xOTk5L3hodG1sIj48c3BhbiBzdHlsZT0iIiBjbGFzcz0ibm9kZUxhYmVsIG1hcmtkb3duLW5vZGUtbGFiZWwiPjxwPsKraW50ZXJmYWNlwrs8L3A+PC9zcGFuPjwvZGl2PjwvZm9yZWlnbk9iamVjdD48L2c+PC9nPjxnIHRyYW5zZm9ybT0idHJhbnNsYXRlKC0yNC41MzEyNSwgLTM5KSIgY2xhc3M9ImxhYmVsLWdyb3VwIHRleHQiPjxnIHRyYW5zZm9ybT0idHJhbnNsYXRlKDAsLTEyKSIgc3R5bGU9ImZvbnQtd2VpZ2h0OiBib2xkZXIiIGNsYXNzPSJsYWJlbCI+PGZvcmVpZ25PYmplY3QgaGVpZ2h0PSIyNCIgd2lkdGg9IjQ5LjA2MjUiPjxkaXYgc3R5bGU9ImRpc3BsYXk6IHRhYmxlLWNlbGw7IHdoaXRlLXNwYWNlOiBub3dyYXA7IGxpbmUtaGVpZ2h0OiAxLjU7IG1heC13aWR0aDogOTZweDsgdGV4dC1hbGlnbjogY2VudGVyOyIgeG1sbnM9Imh0dHA6Ly93d3cudzMub3JnLzE5OTkveGh0bWwiPjxzcGFuIHN0eWxlPSIiIGNsYXNzPSJub2RlTGFiZWwgbWFya2Rvd24tbm9kZS1sYWJlbCI+PHA+Q29mZmVlPC9wPjwvc3Bhbj48L2Rpdj48L2ZvcmVpZ25PYmplY3Q+PC9nPjwvZz48ZyB0cmFuc2Zvcm09InRyYW5zbGF0ZSgtMTExLjIwMDAwNDU3NzYzNjcyLCA5KSIgY2xhc3M9Im1lbWJlcnMtZ3JvdXAgdGV4dCI+PC9nPjxnIHRyYW5zZm9ybT0idHJhbnNsYXRlKC0xMTEuMjAwMDA0NTc3NjM2NzIsIDM5KSIgY2xhc3M9Im1ldGhvZHMtZ3JvdXAgdGV4dCI+PGcgdHJhbnNmb3JtPSJ0cmFuc2xhdGUoMCwtMTIpIiBzdHlsZT0iIiBjbGFzcz0ibGFiZWwiPjxmb3JlaWduT2JqZWN0IGhlaWdodD0iMjQiIHdpZHRoPSIxODEuMjI1MDA2MTAzNTE1NjIiPjxkaXYgc3R5bGU9ImRpc3BsYXk6IHRhYmxlLWNlbGw7IHdoaXRlLXNwYWNlOiBub3dyYXA7IGxpbmUtaGVpZ2h0OiAxLjU7IG1heC13aWR0aDogMjM1cHg7IHRleHQtYWxpZ246IGNlbnRlcjsiIHhtbG5zPSJodHRwOi8vd3d3LnczLm9yZy8xOTk5L3hodG1sIj48c3BhbiBzdHlsZT0iIiBjbGFzcz0ibm9kZUxhYmVsIG1hcmtkb3duLW5vZGUtbGFiZWwiPjxwPitnZXREZXNjcmlwdGlvbigpIDogU3RyaW5nPC9wPjwvc3Bhbj48L2Rpdj48L2ZvcmVpZ25PYmplY3Q+PC9nPjxnIHRyYW5zZm9ybT0idHJhbnNsYXRlKDAsMTIpIiBzdHlsZT0iIiBjbGFzcz0ibGFiZWwiPjxmb3JlaWduT2JqZWN0IGhlaWdodD0iMjQiIHdpZHRoPSIxMTMuNTg3NTAxNTI1ODc4OSI+PGRpdiBzdHlsZT0iZGlzcGxheTogdGFibGUtY2VsbDsgd2hpdGUtc3BhY2U6IG5vd3JhcDsgbGluZS1oZWlnaHQ6IDEuNTsgbWF4LXdpZHRoOiAxNjhweDsgdGV4dC1hbGlnbjogY2VudGVyOyIgeG1sbnM9Imh0dHA6Ly93d3cudzMub3JnLzE5OTkveGh0bWwiPjxzcGFuIHN0eWxlPSIiIGNsYXNzPSJub2RlTGFiZWwgbWFya2Rvd24tbm9kZS1sYWJlbCI+PHA+K2Nvc3QoKSA6IGRvdWJsZTwvcD48L3NwYW4+PC9kaXY+PC9mb3JlaWduT2JqZWN0PjwvZz48L2c+PGcgc3R5bGU9IiIgY2xhc3M9ImRpdmlkZXIiPjxwYXRoIHN0eWxlPSIiIGZpbGw9Im5vbmUiIHN0cm9rZS13aWR0aD0iMS4zIiBzdHJva2U9IiM5OTkiIGQ9Ik0tMTIzLjIwMDAwNDU3NzYzNjcyIC0xNSBDLTUyLjIzMDMyMzA0MzU3NTc4IC0xNSwgMTguNzM5MzU4NDkwNDg1MTYgLTE1LCAxMjMuMjAwMDA0NTc3NjM2NzIgLTE1IE0tMTIzLjIwMDAwNDU3NzYzNjcyIC0xNSBDLTMyLjE2MDk3NDk1NzQzNSAtMTUsIDU4Ljg3ODA1NDY2Mjc2NjcxNSAtMTUsIDEyMy4yMDAwMDQ1Nzc2MzY3MiAtMTUiPjwvcGF0aD48L2c+PGcgc3R5bGU9IiIgY2xhc3M9ImRpdmlkZXIiPjxwYXRoIHN0eWxlPSIiIGZpbGw9Im5vbmUiIHN0cm9rZS13aWR0aD0iMS4zIiBzdHJva2U9IiM5OTkiIGQ9Ik0tMTIzLjIwMDAwNDU3NzYzNjcyIDkgQy01NC43MTc1MjYwOTMwMzI3NiA5LCAxMy43NjQ5NTIzOTE1NzEyIDksIDEyMy4yMDAwMDQ1Nzc2MzY3MiA5IE0tMTIzLjIwMDAwNDU3NzYzNjcyIDkgQy02MC4zMjQ5NTUyMjM3NjYyNyA5LCAyLjU1MDA5NDEzMDEwNDE4NSA5LCAxMjMuMjAwMDA0NTc3NjM2NzIgOSI+PC9wYXRoPjwvZz48L2c+PGcgdHJhbnNmb3JtPSJ0cmFuc2xhdGUoMTM1LjM2MjUwMzA1MTc1NzgsIDU0OC43OTk5OTkyMzcwNjA1KSIgaWQ9ImNsYXNzSWQtU2ltcGxlQ29mZmVlLTEiIGNsYXNzPSJub2RlIGRlZmF1bHQiPjxnIGNsYXNzPSJiYXNpYyBsYWJlbC1jb250YWluZXIiPjxwYXRoIHN0eWxlPSIiIGZpbGw9IiNlZWUiIHN0cm9rZS13aWR0aD0iMCIgc3Ryb2tlPSJub25lIiBkPSJNLTEyNy4zNjI1MDMwNTE3NTc4MSAtNzUgTDEyNy4zNjI1MDMwNTE3NTc4MSAtNzUgTDEyNy4zNjI1MDMwNTE3NTc4MSA3NSBMLTEyNy4zNjI1MDMwNTE3NTc4MSA3NSI+PC9wYXRoPjxwYXRoIHN0eWxlPSIiIGZpbGw9Im5vbmUiIHN0cm9rZS13aWR0aD0iMS4zIiBzdHJva2U9IiM5OTkiIGQ9Ik0tMTI3LjM2MjUwMzA1MTc1NzgxIC03NSBDLTY5LjExMTY1MTk1MjQ2ODE4IC03NSwgLTEwLjg2MDgwMDg1MzE3ODU2IC03NSwgMTI3LjM2MjUwMzA1MTc1NzgxIC03NSBNLTEyNy4zNjI1MDMwNTE3NTc4MSAtNzUgQy02OS4wNzI0ODIzOTk3MTgwMSAtNzUsIC0xMC43ODI0NjE3NDc2NzgyMTIgLTc1LCAxMjcuMzYyNTAzMDUxNzU3ODEgLTc1IE0xMjcuMzYyNTAzMDUxNzU3ODEgLTc1IEMxMjcuMzYyNTAzMDUxNzU3ODEgLTE2Ljg0MjEzNDY2ODQ5Mzc1LCAxMjcuMzYyNTAzMDUxNzU3ODEgNDEuMzE1NzMwNjYzMDEyNSwgMTI3LjM2MjUwMzA1MTc1NzgxIDc1IE0xMjcuMzYyNTAzMDUxNzU3ODEgLTc1IEMxMjcuMzYyNTAzMDUxNzU3ODEgLTM0LjYxMjUxNTU0NDEwOTQzNSwgMTI3LjM2MjUwMzA1MTc1NzgxIDUuNzc0OTY4OTExNzgxMTMsIDEyNy4zNjI1MDMwNTE3NTc4MSA3NSBNMTI3LjM2MjUwMzA1MTc1NzgxIDc1IEMzMC4xOTc4NTA5MDIxNzgwNDcgNzUsIC02Ni45NjY4MDEyNDc0MDE3MiA3NSwgLTEyNy4zNjI1MDMwNTE3NTc4MSA3NSBNMTI3LjM2MjUwMzA1MTc1NzgxIDc1IEM2Ny43NjAxNjc4NjgzMTUzNCA3NSwgOC4xNTc4MzI2ODQ4NzI4NDQgNzUsIC0xMjcuMzYyNTAzMDUxNzU3ODEgNzUgTS0xMjcuMzYyNTAzMDUxNzU3ODEgNzUgQy0xMjcuMzYyNTAzMDUxNzU3ODEgMzUuODU0OTMxMTI0MTg3NTMsIC0xMjcuMzYyNTAzMDUxNzU3ODEgLTMuMjkwMTM3NzUxNjI0OTM5NywgLTEyNy4zNjI1MDMwNTE3NTc4MSAtNzUgTS0xMjcuMzYyNTAzMDUxNzU3ODEgNzUgQy0xMjcuMzYyNTAzMDUxNzU3ODEgMTkuNzU1MjIyNjQ1MDE4MzY0LCAtMTI3LjM2MjUwMzA1MTc1NzgxIC0zNS40ODk1NTQ3MDk5NjMyNywgLTEyNy4zNjI1MDMwNTE3NTc4MSAtNzUiPjwvcGF0aD48L2c+PGcgdHJhbnNmb3JtPSJ0cmFuc2xhdGUoMCwgLTUxKSIgY2xhc3M9ImFubm90YXRpb24tZ3JvdXAgdGV4dCI+PC9nPjxnIHRyYW5zZm9ybT0idHJhbnNsYXRlKC00OS41LCAtNTEpIiBjbGFzcz0ibGFiZWwtZ3JvdXAgdGV4dCI+PGcgdHJhbnNmb3JtPSJ0cmFuc2xhdGUoMCwtMTIpIiBzdHlsZT0iZm9udC13ZWlnaHQ6IGJvbGRlciIgY2xhc3M9ImxhYmVsIj48Zm9yZWlnbk9iamVjdCBoZWlnaHQ9IjI0IiB3aWR0aD0iOTkiPjxkaXYgc3R5bGU9ImRpc3BsYXk6IHRhYmxlLWNlbGw7IHdoaXRlLXNwYWNlOiBub3dyYXA7IGxpbmUtaGVpZ2h0OiAxLjU7IG1heC13aWR0aDogMTQ0cHg7IHRleHQtYWxpZ246IGNlbnRlcjsiIHhtbG5zPSJodHRwOi8vd3d3LnczLm9yZy8xOTk5L3hodG1sIj48c3BhbiBzdHlsZT0iIiBjbGFzcz0ibm9kZUxhYmVsIG1hcmtkb3duLW5vZGUtbGFiZWwiPjxwPlNpbXBsZUNvZmZlZTwvcD48L3NwYW4+PC9kaXY+PC9mb3JlaWduT2JqZWN0PjwvZz48L2c+PGcgdHJhbnNmb3JtPSJ0cmFuc2xhdGUoLTExNS4zNjI1MDMwNTE3NTc4MSwgLTMpIiBjbGFzcz0ibWVtYmVycy1ncm91cCB0ZXh0Ij48L2c+PGcgdHJhbnNmb3JtPSJ0cmFuc2xhdGUoLTExNS4zNjI1MDMwNTE3NTc4MSwgMjcpIiBjbGFzcz0ibWV0aG9kcy1ncm91cCB0ZXh0Ij48ZyB0cmFuc2Zvcm09InRyYW5zbGF0ZSgwLC0xMikiIHN0eWxlPSIiIGNsYXNzPSJsYWJlbCI+PGZvcmVpZ25PYmplY3QgaGVpZ2h0PSIyNCIgd2lkdGg9IjE4MS4yMjUwMDYxMDM1MTU2MiI+PGRpdiBzdHlsZT0iZGlzcGxheTogdGFibGUtY2VsbDsgd2hpdGUtc3BhY2U6IG5vd3JhcDsgbGluZS1oZWlnaHQ6IDEuNTsgbWF4LXdpZHRoOiAyMzVweDsgdGV4dC1hbGlnbjogY2VudGVyOyIgeG1sbnM9Imh0dHA6Ly93d3cudzMub3JnLzE5OTkveGh0bWwiPjxzcGFuIHN0eWxlPSIiIGNsYXNzPSJub2RlTGFiZWwgbWFya2Rvd24tbm9kZS1sYWJlbCI+PHA+K2dldERlc2NyaXB0aW9uKCkgOiBTdHJpbmc8L3A+PC9zcGFuPjwvZGl2PjwvZm9yZWlnbk9iamVjdD48L2c+PGcgdHJhbnNmb3JtPSJ0cmFuc2xhdGUoMCwxMikiIHN0eWxlPSIiIGNsYXNzPSJsYWJlbCI+PGZvcmVpZ25PYmplY3QgaGVpZ2h0PSIyNCIgd2lkdGg9IjExMy41ODc1MDE1MjU4Nzg5Ij48ZGl2IHN0eWxlPSJkaXNwbGF5OiB0YWJsZS1jZWxsOyB3aGl0ZS1zcGFjZTogbm93cmFwOyBsaW5lLWhlaWdodDogMS41OyBtYXgtd2lkdGg6IDE2OHB4OyB0ZXh0LWFsaWduOiBjZW50ZXI7IiB4bWxucz0iaHR0cDovL3d3dy53My5vcmcvMTk5OS94aHRtbCI+PHNwYW4gc3R5bGU9IiIgY2xhc3M9Im5vZGVMYWJlbCBtYXJrZG93bi1ub2RlLWxhYmVsIj48cD4rY29zdCgpIDogZG91YmxlPC9wPjwvc3Bhbj48L2Rpdj48L2ZvcmVpZ25PYmplY3Q+PC9nPjwvZz48ZyBzdHlsZT0iIiBjbGFzcz0iZGl2aWRlciI+PHBhdGggc3R5bGU9IiIgZmlsbD0ibm9uZSIgc3Ryb2tlLXdpZHRoPSIxLjMiIHN0cm9rZT0iIzk5OSIgZD0iTS0xMjcuMzYyNTAzMDUxNzU3ODEgLTI3IEMtNTkuMDAwMTY3NzM4OTIxNzkgLTI3LCA5LjM2MjE2NzU3MzkxNDIzNSAtMjcsIDEyNy4zNjI1MDMwNTE3NTc4MSAtMjcgTS0xMjcuMzYyNTAzMDUxNzU3ODEgLTI3IEMtNDEuNDQwMzM0NDkyNTUzNzkgLTI3LCA0NC40ODE4MzQwNjY2NTAyNCAtMjcsIDEyNy4zNjI1MDMwNTE3NTc4MSAtMjciPjwvcGF0aD48L2c+PGcgc3R5bGU9IiIgY2xhc3M9ImRpdmlkZXIiPjxwYXRoIHN0eWxlPSIiIGZpbGw9Im5vbmUiIHN0cm9rZS13aWR0aD0iMS4zIiBzdHJva2U9IiM5OTkiIGQ9Ik0tMTI3LjM2MjUwMzA1MTc1NzgxIC0zIEMtNzQuMDczNDk2NDczMzA1MzUgLTMsIC0yMC43ODQ0ODk4OTQ4NTI4OTYgLTMsIDEyNy4zNjI1MDMwNTE3NTc4MSAtMyBNLTEyNy4zNjI1MDMwNTE3NTc4MSAtMyBDLTM0LjIxMTE5MTc2NzM4MzQgLTMsIDU4Ljk0MDExOTUxNjk5MTAyIC0zLCAxMjcuMzYyNTAzMDUxNzU3ODEgLTMiPjwvcGF0aD48L2c+PC9nPjxnIHRyYW5zZm9ybT0idHJhbnNsYXRlKDQzMS4zODQzODQxNTUyNzM0NCwgNTQ4Ljc5OTk5OTIzNzA2MDUpIiBpZD0iY2xhc3NJZC1Fc3ByZXNzby0yIiBjbGFzcz0ibm9kZSBkZWZhdWx0Ij48ZyBjbGFzcz0iYmFzaWMgbGFiZWwtY29udGFpbmVyIj48cGF0aCBzdHlsZT0iIiBmaWxsPSIjZWVlIiBzdHJva2Utd2lkdGg9IjAiIHN0cm9rZT0ibm9uZSIgZD0iTS0xMTguNjU5Mzc4MDUxNzU3ODEgLTc1IEwxMTguNjU5Mzc4MDUxNzU3ODEgLTc1IEwxMTguNjU5Mzc4MDUxNzU3ODEgNzUgTC0xMTguNjU5Mzc4MDUxNzU3ODEgNzUiPjwvcGF0aD48cGF0aCBzdHlsZT0iIiBmaWxsPSJub25lIiBzdHJva2Utd2lkdGg9IjEuMyIgc3Ryb2tlPSIjOTk5IiBkPSJNLTExOC42NTkzNzgwNTE3NTc4MSAtNzUgQy0zMC43MjE1Mjg2MTgxNjcxNTYgLTc1LCA1Ny4yMTYzMjA4MTU0MjM1IC03NSwgMTE4LjY1OTM3ODA1MTc1NzgxIC03NSBNLTExOC42NTkzNzgwNTE3NTc4MSAtNzUgQy00MC42MzU0OTA2OTE0NTM1MjYgLTc1LCAzNy4zODgzOTY2Njg4NTA3NiAtNzUsIDExOC42NTkzNzgwNTE3NTc4MSAtNzUgTTExOC42NTkzNzgwNTE3NTc4MSAtNzUgQzExOC42NTkzNzgwNTE3NTc4MSAtMzIuNjU1NTY4MzIxNjA4MzgsIDExOC42NTkzNzgwNTE3NTc4MSA5LjY4ODg2MzM1Njc4MzI0NCwgMTE4LjY1OTM3ODA1MTc1NzgxIDc1IE0xMTguNjU5Mzc4MDUxNzU3ODEgLTc1IEMxMTguNjU5Mzc4MDUxNzU3ODEgLTMwLjgzODU5MzY3MDczMzE2LCAxMTguNjU5Mzc4MDUxNzU3ODEgMTMuMzIyODEyNjU4NTMzNjc4LCAxMTguNjU5Mzc4MDUxNzU3ODEgNzUgTTExOC42NTkzNzgwNTE3NTc4MSA3NSBDMjUuMDU5NDE3NTQzMjU5MTczIDc1LCAtNjguNTQwNTQyOTY1MjM5NDcgNzUsIC0xMTguNjU5Mzc4MDUxNzU3ODEgNzUgTTExOC42NTkzNzgwNTE3NTc4MSA3NSBDMjQuNTk2NTIyMTkyNjMwMTYgNzUsIC02OS40NjYzMzM2NjY0OTc0OSA3NSwgLTExOC42NTkzNzgwNTE3NTc4MSA3NSBNLTExOC42NTkzNzgwNTE3NTc4MSA3NSBDLTExOC42NTkzNzgwNTE3NTc4MSAxNi42NjIwNzAyMjc2MjgxNTYsIC0xMTguNjU5Mzc4MDUxNzU3ODEgLTQxLjY3NTg1OTU0NDc0MzY5LCAtMTE4LjY1OTM3ODA1MTc1NzgxIC03NSBNLTExOC42NTkzNzgwNTE3NTc4MSA3NSBDLTExOC42NTkzNzgwNTE3NTc4MSAyMC4xMjE4ODE1Mjk1NTY5NiwgLTExOC42NTkzNzgwNTE3NTc4MSAtMzQuNzU2MjM2OTQwODg2MDgsIC0xMTguNjU5Mzc4MDUxNzU3ODEgLTc1Ij48L3BhdGg+PC9nPjxnIHRyYW5zZm9ybT0idHJhbnNsYXRlKDAsIC01MSkiIGNsYXNzPSJhbm5vdGF0aW9uLWdyb3VwIHRleHQiPjwvZz48ZyB0cmFuc2Zvcm09InRyYW5zbGF0ZSgtMzIuMDkzNzUsIC01MSkiIGNsYXNzPSJsYWJlbC1ncm91cCB0ZXh0Ij48ZyB0cmFuc2Zvcm09InRyYW5zbGF0ZSgwLC0xMikiIHN0eWxlPSJmb250LXdlaWdodDogYm9sZGVyIiBjbGFzcz0ibGFiZWwiPjxmb3JlaWduT2JqZWN0IGhlaWdodD0iMjQiIHdpZHRoPSI2NC4xODc1Ij48ZGl2IHN0eWxlPSJkaXNwbGF5OiB0YWJsZS1jZWxsOyB3aGl0ZS1zcGFjZTogbm93cmFwOyBsaW5lLWhlaWdodDogMS41OyBtYXgtd2lkdGg6IDExMXB4OyB0ZXh0LWFsaWduOiBjZW50ZXI7IiB4bWxucz0iaHR0cDovL3d3dy53My5vcmcvMTk5OS94aHRtbCI+PHNwYW4gc3R5bGU9IiIgY2xhc3M9Im5vZGVMYWJlbCBtYXJrZG93bi1ub2RlLWxhYmVsIj48cD5Fc3ByZXNzbzwvcD48L3NwYW4+PC9kaXY+PC9mb3JlaWduT2JqZWN0PjwvZz48L2c+PGcgdHJhbnNmb3JtPSJ0cmFuc2xhdGUoLTEwNi42NTkzNzgwNTE3NTc4MSwgLTMpIiBjbGFzcz0ibWVtYmVycy1ncm91cCB0ZXh0Ij48L2c+PGcgdHJhbnNmb3JtPSJ0cmFuc2xhdGUoLTEwNi42NTkzNzgwNTE3NTc4MSwgMjcpIiBjbGFzcz0ibWV0aG9kcy1ncm91cCB0ZXh0Ij48ZyB0cmFuc2Zvcm09InRyYW5zbGF0ZSgwLC0xMikiIHN0eWxlPSIiIGNsYXNzPSJsYWJlbCI+PGZvcmVpZ25PYmplY3QgaGVpZ2h0PSIyNCIgd2lkdGg9IjE4MS4yMjUwMDYxMDM1MTU2MiI+PGRpdiBzdHlsZT0iZGlzcGxheTogdGFibGUtY2VsbDsgd2hpdGUtc3BhY2U6IG5vd3JhcDsgbGluZS1oZWlnaHQ6IDEuNTsgbWF4LXdpZHRoOiAyMzVweDsgdGV4dC1hbGlnbjogY2VudGVyOyIgeG1sbnM9Imh0dHA6Ly93d3cudzMub3JnLzE5OTkveGh0bWwiPjxzcGFuIHN0eWxlPSIiIGNsYXNzPSJub2RlTGFiZWwgbWFya2Rvd24tbm9kZS1sYWJlbCI+PHA+K2dldERlc2NyaXB0aW9uKCkgOiBTdHJpbmc8L3A+PC9zcGFuPjwvZGl2PjwvZm9yZWlnbk9iamVjdD48L2c+PGcgdHJhbnNmb3JtPSJ0cmFuc2xhdGUoMCwxMikiIHN0eWxlPSIiIGNsYXNzPSJsYWJlbCI+PGZvcmVpZ25PYmplY3QgaGVpZ2h0PSIyNCIgd2lkdGg9IjExMy41ODc1MDE1MjU4Nzg5Ij48ZGl2IHN0eWxlPSJkaXNwbGF5OiB0YWJsZS1jZWxsOyB3aGl0ZS1zcGFjZTogbm93cmFwOyBsaW5lLWhlaWdodDogMS41OyBtYXgtd2lkdGg6IDE2OHB4OyB0ZXh0LWFsaWduOiBjZW50ZXI7IiB4bWxucz0iaHR0cDovL3d3dy53My5vcmcvMTk5OS94aHRtbCI+PHNwYW4gc3R5bGU9IiIgY2xhc3M9Im5vZGVMYWJlbCBtYXJrZG93bi1ub2RlLWxhYmVsIj48cD4rY29zdCgpIDogZG91YmxlPC9wPjwvc3Bhbj48L2Rpdj48L2ZvcmVpZ25PYmplY3Q+PC9nPjwvZz48ZyBzdHlsZT0iIiBjbGFzcz0iZGl2aWRlciI+PHBhdGggc3R5bGU9IiIgZmlsbD0ibm9uZSIgc3Ryb2tlLXdpZHRoPSIxLjMiIHN0cm9rZT0iIzk5OSIgZD0iTS0xMTguNjU5Mzc4MDUxNzU3ODEgLTI3IEMtMjguNTYxMTg2MzAzMDQxMDgzIC0yNywgNjEuNTM3MDA1NDQ1Njc1NjQ2IC0yNywgMTE4LjY1OTM3ODA1MTc1NzgxIC0yNyBNLTExOC42NTkzNzgwNTE3NTc4MSAtMjcgQy01OC4yNTkwMzYwMDAyNTY1MiAtMjcsIDIuMTQxMzA2MDUxMjQ0NzY4NiAtMjcsIDExOC42NTkzNzgwNTE3NTc4MSAtMjciPjwvcGF0aD48L2c+PGcgc3R5bGU9IiIgY2xhc3M9ImRpdmlkZXIiPjxwYXRoIHN0eWxlPSIiIGZpbGw9Im5vbmUiIHN0cm9rZS13aWR0aD0iMS4zIiBzdHJva2U9IiM5OTkiIGQ9Ik0tMTE4LjY1OTM3ODA1MTc1NzgxIC0zIEMtNTkuNDcyMjY4MzkzNjk1MTk1IC0zLCAtMC4yODUxNTg3MzU2MzI1NzggLTMsIDExOC42NTkzNzgwNTE3NTc4MSAtMyBNLTExOC42NTkzNzgwNTE3NTc4MSAtMyBDLTI3LjI1ODk1Nzg5MzYzMzkwNSAtMywgNjQuMTQxNDYyMjY0NDkgLTMsIDExOC42NTkzNzgwNTE3NTc4MSAtMyI+PC9wYXRoPjwvZz48L2c+PGcgdHJhbnNmb3JtPSJ0cmFuc2xhdGUoNzIzLjEzNzUxMjIwNzAzMTIsIDU0OC43OTk5OTkyMzcwNjA1KSIgaWQ9ImNsYXNzSWQtQ29sZENvZmZlZS0zIiBjbGFzcz0ibm9kZSBkZWZhdWx0Ij48ZyBjbGFzcz0iYmFzaWMgbGFiZWwtY29udGFpbmVyIj48cGF0aCBzdHlsZT0iIiBmaWxsPSIjZWVlIiBzdHJva2Utd2lkdGg9IjAiIHN0cm9rZT0ibm9uZSIgZD0iTS0xMjMuMDkzNzUgLTc1IEwxMjMuMDkzNzUgLTc1IEwxMjMuMDkzNzUgNzUgTC0xMjMuMDkzNzUgNzUiPjwvcGF0aD48cGF0aCBzdHlsZT0iIiBmaWxsPSJub25lIiBzdHJva2Utd2lkdGg9IjEuMyIgc3Ryb2tlPSIjOTk5IiBkPSJNLTEyMy4wOTM3NSAtNzUgQy01Mi4zOTE3NDU5MDExOTEwMyAtNzUsIDE4LjMxMDI1ODE5NzYxNzk0IC03NSwgMTIzLjA5Mzc1IC03NSBNLTEyMy4wOTM3NSAtNzUgQy00Ni4yMTMwMDA4NDE0NTMwOCAtNzUsIDMwLjY2Nzc0ODMxNzA5Mzg0IC03NSwgMTIzLjA5Mzc1IC03NSBNMTIzLjA5Mzc1IC03NSBDMTIzLjA5Mzc1IC0zNy41MjQ3MDY1Mzk3NjA3MzYsIDEyMy4wOTM3NSAtMC4wNDk0MTMwNzk1MjE0NzE1NiwgMTIzLjA5Mzc1IDc1IE0xMjMuMDkzNzUgLTc1IEMxMjMuMDkzNzUgLTE1LjI0NjQ0NzMyMjg1NTk2NCwgMTIzLjA5Mzc1IDQ0LjUwNzEwNTM1NDI4ODA3LCAxMjMuMDkzNzUgNzUgTTEyMy4wOTM3NSA3NSBDMzAuMDMwNzY3MDAyMDAxMjI3IDc1LCAtNjMuMDMyMjE1OTk1OTk3NTUgNzUsIC0xMjMuMDkzNzUgNzUgTTEyMy4wOTM3NSA3NSBDNjcuNDczNTA0NTU0NzEyMTIgNzUsIDExLjg1MzI1OTEwOTQyNDIzIDc1LCAtMTIzLjA5Mzc1IDc1IE0tMTIzLjA5Mzc1IDc1IEMtMTIzLjA5Mzc1IDI0LjIyOTk1MTkxNjk4Nzg5MywgLTEyMy4wOTM3NSAtMjYuNTQwMDk2MTY2MDI0MjEzLCAtMTIzLjA5Mzc1IC03NSBNLTEyMy4wOTM3NSA3NSBDLTEyMy4wOTM3NSAyMy40MjIzOTY5MTY4Mjk5NTMsIC0xMjMuMDkzNzUgLTI4LjE1NTIwNjE2NjM0MDA5MywgLTEyMy4wOTM3NSAtNzUiPjwvcGF0aD48L2c+PGcgdHJhbnNmb3JtPSJ0cmFuc2xhdGUoMCwgLTUxKSIgY2xhc3M9ImFubm90YXRpb24tZ3JvdXAgdGV4dCI+PC9nPjxnIHRyYW5zZm9ybT0idHJhbnNsYXRlKC00MC45NjI1MDE1MjU4Nzg5MDYsIC01MSkiIGNsYXNzPSJsYWJlbC1ncm91cCB0ZXh0Ij48ZyB0cmFuc2Zvcm09InRyYW5zbGF0ZSgwLC0xMikiIHN0eWxlPSJmb250LXdlaWdodDogYm9sZGVyIiBjbGFzcz0ibGFiZWwiPjxmb3JlaWduT2JqZWN0IGhlaWdodD0iMjQiIHdpZHRoPSI4MS45MjUwMDMwNTE3NTc4MSI+PGRpdiBzdHlsZT0iZGlzcGxheTogdGFibGUtY2VsbDsgd2hpdGUtc3BhY2U6IG5vd3JhcDsgbGluZS1oZWlnaHQ6IDEuNTsgbWF4LXdpZHRoOiAxMjlweDsgdGV4dC1hbGlnbjogY2VudGVyOyIgeG1sbnM9Imh0dHA6Ly93d3cudzMub3JnLzE5OTkveGh0bWwiPjxzcGFuIHN0eWxlPSIiIGNsYXNzPSJub2RlTGFiZWwgbWFya2Rvd24tbm9kZS1sYWJlbCI+PHA+Q29sZENvZmZlZTwvcD48L3NwYW4+PC9kaXY+PC9mb3JlaWduT2JqZWN0PjwvZz48L2c+PGcgdHJhbnNmb3JtPSJ0cmFuc2xhdGUoLTExMS4wOTM3NSwgLTMpIiBjbGFzcz0ibWVtYmVycy1ncm91cCB0ZXh0Ij48L2c+PGcgdHJhbnNmb3JtPSJ0cmFuc2xhdGUoLTExMS4wOTM3NSwgMjcpIiBjbGFzcz0ibWV0aG9kcy1ncm91cCB0ZXh0Ij48ZyB0cmFuc2Zvcm09InRyYW5zbGF0ZSgwLC0xMikiIHN0eWxlPSIiIGNsYXNzPSJsYWJlbCI+PGZvcmVpZ25PYmplY3QgaGVpZ2h0PSIyNCIgd2lkdGg9IjE4MS4yMjUwMDYxMDM1MTU2MiI+PGRpdiBzdHlsZT0iZGlzcGxheTogdGFibGUtY2VsbDsgd2hpdGUtc3BhY2U6IG5vd3JhcDsgbGluZS1oZWlnaHQ6IDEuNTsgbWF4LXdpZHRoOiAyMzVweDsgdGV4dC1hbGlnbjogY2VudGVyOyIgeG1sbnM9Imh0dHA6Ly93d3cudzMub3JnLzE5OTkveGh0bWwiPjxzcGFuIHN0eWxlPSIiIGNsYXNzPSJub2RlTGFiZWwgbWFya2Rvd24tbm9kZS1sYWJlbCI+PHA+K2dldERlc2NyaXB0aW9uKCkgOiBTdHJpbmc8L3A+PC9zcGFuPjwvZGl2PjwvZm9yZWlnbk9iamVjdD48L2c+PGcgdHJhbnNmb3JtPSJ0cmFuc2xhdGUoMCwxMikiIHN0eWxlPSIiIGNsYXNzPSJsYWJlbCI+PGZvcmVpZ25PYmplY3QgaGVpZ2h0PSIyNCIgd2lkdGg9IjExMy41ODc1MDE1MjU4Nzg5Ij48ZGl2IHN0eWxlPSJkaXNwbGF5OiB0YWJsZS1jZWxsOyB3aGl0ZS1zcGFjZTogbm93cmFwOyBsaW5lLWhlaWdodDogMS41OyBtYXgtd2lkdGg6IDE2OHB4OyB0ZXh0LWFsaWduOiBjZW50ZXI7IiB4bWxucz0iaHR0cDovL3d3dy53My5vcmcvMTk5OS94aHRtbCI+PHNwYW4gc3R5bGU9IiIgY2xhc3M9Im5vZGVMYWJlbCBtYXJrZG93bi1ub2RlLWxhYmVsIj48cD4rY29zdCgpIDogZG91YmxlPC9wPjwvc3Bhbj48L2Rpdj48L2ZvcmVpZ25PYmplY3Q+PC9nPjwvZz48ZyBzdHlsZT0iIiBjbGFzcz0iZGl2aWRlciI+PHBhdGggc3R5bGU9IiIgZmlsbD0ibm9uZSIgc3Ryb2tlLXdpZHRoPSIxLjMiIHN0cm9rZT0iIzk5OSIgZD0iTS0xMjMuMDkzNzUgLTI3IEMtMjYuOTI5MjA4MTc5ODc2IC0yNywgNjkuMjM1MzMzNjQwMjQ4IC0yNywgMTIzLjA5Mzc1IC0yNyBNLTEyMy4wOTM3NSAtMjcgQy01NS4xMzI2MzM3Mzc0MjI4MiAtMjcsIDEyLjgyODQ4MjUyNTE1NDM1NyAtMjcsIDEyMy4wOTM3NSAtMjciPjwvcGF0aD48L2c+PGcgc3R5bGU9IiIgY2xhc3M9ImRpdmlkZXIiPjxwYXRoIHN0eWxlPSIiIGZpbGw9Im5vbmUiIHN0cm9rZS13aWR0aD0iMS4zIiBzdHJva2U9IiM5OTkiIGQ9Ik0tMTIzLjA5Mzc1IC0zIEMtNzAuNjY5ODIxNzQyNzAyNzcgLTMsIC0xOC4yNDU4OTM0ODU0MDU1NDYgLTMsIDEyMy4wOTM3NSAtMyBNLTEyMy4wOTM3NSAtMyBDLTQ4LjczMDcyNTAzNDQxODA0IC0zLCAyNS42MzIyOTk5MzExNjM5MTQgLTMsIDEyMy4wOTM3NSAtMyI+PC9wYXRoPjwvZz48L2c+PGcgdHJhbnNmb3JtPSJ0cmFuc2xhdGUoMTA1Ny4xNzUwMTgzMTA1NDY5LCA1NDguNzk5OTk5MjM3MDYwNSkiIGlkPSJjbGFzc0lkLUNvZmZlZURlY29yYXRvci00IiBjbGFzcz0ibm9kZSBkZWZhdWx0Ij48ZyBjbGFzcz0iYmFzaWMgbGFiZWwtY29udGFpbmVyIj48cGF0aCBzdHlsZT0iIiBmaWxsPSIjZWVlIiBzdHJva2Utd2lkdGg9IjAiIHN0cm9rZT0ibm9uZSIgZD0iTS0xNjAuOTQzNzU2MTAzNTE1NjIgLTk2IEwxNjAuOTQzNzU2MTAzNTE1NjIgLTk2IEwxNjAuOTQzNzU2MTAzNTE1NjIgOTYgTC0xNjAuOTQzNzU2MTAzNTE1NjIgOTYiPjwvcGF0aD48cGF0aCBzdHlsZT0iIiBmaWxsPSJub25lIiBzdHJva2Utd2lkdGg9IjEuMyIgc3Ryb2tlPSIjOTk5IiBkPSJNLTE2MC45NDM3NTYxMDM1MTU2MiAtOTYgQy01Ni4wMDk5NzQ1MzY4MzczNiAtOTYsIDQ4LjkyMzgwNzAyOTg0MDkgLTk2LCAxNjAuOTQzNzU2MTAzNTE1NjIgLTk2IE0tMTYwLjk0Mzc1NjEwMzUxNTYyIC05NiBDLTM3LjY4NjU1NzkzNjI1NDkgLTk2LCA4NS41NzA2NDAyMzEwMDU4MyAtOTYsIDE2MC45NDM3NTYxMDM1MTU2MiAtOTYgTTE2MC45NDM3NTYxMDM1MTU2MiAtOTYgQzE2MC45NDM3NTYxMDM1MTU2MiAtNDQuNTY0OTA0NDQ0ODMwODcsIDE2MC45NDM3NTYxMDM1MTU2MiA2Ljg3MDE5MTExMDMzODI1NCwgMTYwLjk0Mzc1NjEwMzUxNTYyIDk2IE0xNjAuOTQzNzU2MTAzNTE1NjIgLTk2IEMxNjAuOTQzNzU2MTAzNTE1NjIgLTMwLjE4MTAzNzI2NzE0NDQ5LCAxNjAuOTQzNzU2MTAzNTE1NjIgMzUuNjM3OTI1NDY1NzExMDIsIDE2MC45NDM3NTYxMDM1MTU2MiA5NiBNMTYwLjk0Mzc1NjEwMzUxNTYyIDk2IEM2NC45NDk0ODExODMxNjIgOTYsIC0zMS4wNDQ3OTM3MzcxOTE2MSA5NiwgLTE2MC45NDM3NTYxMDM1MTU2MiA5NiBNMTYwLjk0Mzc1NjEwMzUxNTYyIDk2IEM1My45NDE1NzUyNDI1MzIyMjQgOTYsIC01My4wNjA2MDU2MTg0NTExOCA5NiwgLTE2MC45NDM3NTYxMDM1MTU2MiA5NiBNLTE2MC45NDM3NTYxMDM1MTU2MiA5NiBDLTE2MC45NDM3NTYxMDM1MTU2MiAyMi42MDEzNzY3Mzc5MDgzOTYsIC0xNjAuOTQzNzU2MTAzNTE1NjIgLTUwLjc5NzI0NjUyNDE4MzIxLCAtMTYwLjk0Mzc1NjEwMzUxNTYyIC05NiBNLTE2MC45NDM3NTYxMDM1MTU2MiA5NiBDLTE2MC45NDM3NTYxMDM1MTU2MiA0NC41MDcwMTU1ODUxMjY5NSwgLTE2MC45NDM3NTYxMDM1MTU2MiAtNi45ODU5Njg4Mjk3NDYwOTksIC0xNjAuOTQzNzU2MTAzNTE1NjIgLTk2Ij48L3BhdGg+PC9nPjxnIHRyYW5zZm9ybT0idHJhbnNsYXRlKDAsIC03MikiIGNsYXNzPSJhbm5vdGF0aW9uLWdyb3VwIHRleHQiPjwvZz48ZyB0cmFuc2Zvcm09InRyYW5zbGF0ZSgtNjEuNDM3NSwgLTcyKSIgY2xhc3M9ImxhYmVsLWdyb3VwIHRleHQiPjxnIHRyYW5zZm9ybT0idHJhbnNsYXRlKDAsLTEyKSIgc3R5bGU9ImZvbnQtd2VpZ2h0OiBib2xkZXIiIGNsYXNzPSJsYWJlbCI+PGZvcmVpZ25PYmplY3QgaGVpZ2h0PSIyNCIgd2lkdGg9IjEyMi44NzUiPjxkaXYgc3R5bGU9ImRpc3BsYXk6IHRhYmxlLWNlbGw7IHdoaXRlLXNwYWNlOiBub3dyYXA7IGxpbmUtaGVpZ2h0OiAxLjU7IG1heC13aWR0aDogMTY3cHg7IHRleHQtYWxpZ246IGNlbnRlcjsiIHhtbG5zPSJodHRwOi8vd3d3LnczLm9yZy8xOTk5L3hodG1sIj48c3BhbiBzdHlsZT0iIiBjbGFzcz0ibm9kZUxhYmVsIG1hcmtkb3duLW5vZGUtbGFiZWwiPjxwPkNvZmZlZURlY29yYXRvcjwvcD48L3NwYW4+PC9kaXY+PC9mb3JlaWduT2JqZWN0PjwvZz48L2c+PGcgdHJhbnNmb3JtPSJ0cmFuc2xhdGUoLTE0OC45NDM3NTYxMDM1MTU2MiwgLTI0KSIgY2xhc3M9Im1lbWJlcnMtZ3JvdXAgdGV4dCI+PGcgdHJhbnNmb3JtPSJ0cmFuc2xhdGUoMCwtMTIpIiBzdHlsZT0iIiBjbGFzcz0ibGFiZWwiPjxmb3JlaWduT2JqZWN0IGhlaWdodD0iMjQiIHdpZHRoPSIxMDMuOTI1MDAzMDUxNzU3ODEiPjxkaXYgc3R5bGU9ImRpc3BsYXk6IHRhYmxlLWNlbGw7IHdoaXRlLXNwYWNlOiBub3dyYXA7IGxpbmUtaGVpZ2h0OiAxLjU7IG1heC13aWR0aDogMTU3cHg7IHRleHQtYWxpZ246IGNlbnRlcjsiIHhtbG5zPSJodHRwOi8vd3d3LnczLm9yZy8xOTk5L3hodG1sIj48c3BhbiBzdHlsZT0iIiBjbGFzcz0ibm9kZUxhYmVsIG1hcmtkb3duLW5vZGUtbGFiZWwiPjxwPi1Db2ZmZWUgY29mZmVlPC9wPjwvc3Bhbj48L2Rpdj48L2ZvcmVpZ25PYmplY3Q+PC9nPjwvZz48ZyB0cmFuc2Zvcm09InRyYW5zbGF0ZSgtMTQ4Ljk0Mzc1NjEwMzUxNTYyLCAyNCkiIGNsYXNzPSJtZXRob2RzLWdyb3VwIHRleHQiPjxnIHRyYW5zZm9ybT0idHJhbnNsYXRlKDAsLTEyKSIgc3R5bGU9IiIgY2xhc3M9ImxhYmVsIj48Zm9yZWlnbk9iamVjdCBoZWlnaHQ9IjI0IiB3aWR0aD0iMjM2LjQ0OTk5Njk0ODI0MjIiPjxkaXYgc3R5bGU9ImRpc3BsYXk6IHRhYmxlLWNlbGw7IHdoaXRlLXNwYWNlOiBub3dyYXA7IGxpbmUtaGVpZ2h0OiAxLjU7IG1heC13aWR0aDogMjg4cHg7IHRleHQtYWxpZ246IGNlbnRlcjsiIHhtbG5zPSJodHRwOi8vd3d3LnczLm9yZy8xOTk5L3hodG1sIj48c3BhbiBzdHlsZT0iIiBjbGFzcz0ibm9kZUxhYmVsIG1hcmtkb3duLW5vZGUtbGFiZWwiPjxwPitDb2ZmZWVEZWNvcmF0b3IoQ29mZmVlIGNvZmZlZSk8L3A+PC9zcGFuPjwvZGl2PjwvZm9yZWlnbk9iamVjdD48L2c+PGcgdHJhbnNmb3JtPSJ0cmFuc2xhdGUoMCwxMikiIHN0eWxlPSIiIGNsYXNzPSJsYWJlbCI+PGZvcmVpZ25PYmplY3QgaGVpZ2h0PSIyNCIgd2lkdGg9IjE4MS4yMjUwMDYxMDM1MTU2MiI+PGRpdiBzdHlsZT0iZGlzcGxheTogdGFibGUtY2VsbDsgd2hpdGUtc3BhY2U6IG5vd3JhcDsgbGluZS1oZWlnaHQ6IDEuNTsgbWF4LXdpZHRoOiAyMzVweDsgdGV4dC1hbGlnbjogY2VudGVyOyIgeG1sbnM9Imh0dHA6Ly93d3cudzMub3JnLzE5OTkveGh0bWwiPjxzcGFuIHN0eWxlPSIiIGNsYXNzPSJub2RlTGFiZWwgbWFya2Rvd24tbm9kZS1sYWJlbCI+PHA+K2dldERlc2NyaXB0aW9uKCkgOiBTdHJpbmc8L3A+PC9zcGFuPjwvZGl2PjwvZm9yZWlnbk9iamVjdD48L2c+PGcgdHJhbnNmb3JtPSJ0cmFuc2xhdGUoMCwzNikiIHN0eWxlPSIiIGNsYXNzPSJsYWJlbCI+PGZvcmVpZ25PYmplY3QgaGVpZ2h0PSIyNCIgd2lkdGg9IjExMy41ODc1MDE1MjU4Nzg5Ij48ZGl2IHN0eWxlPSJkaXNwbGF5OiB0YWJsZS1jZWxsOyB3aGl0ZS1zcGFjZTogbm93cmFwOyBsaW5lLWhlaWdodDogMS41OyBtYXgtd2lkdGg6IDE2OHB4OyB0ZXh0LWFsaWduOiBjZW50ZXI7IiB4bWxucz0iaHR0cDovL3d3dy53My5vcmcvMTk5OS94aHRtbCI+PHNwYW4gc3R5bGU9IiIgY2xhc3M9Im5vZGVMYWJlbCBtYXJrZG93bi1ub2RlLWxhYmVsIj48cD4rY29zdCgpIDogZG91YmxlPC9wPjwvc3Bhbj48L2Rpdj48L2ZvcmVpZ25PYmplY3Q+PC9nPjwvZz48ZyBzdHlsZT0iIiBjbGFzcz0iZGl2aWRlciI+PHBhdGggc3R5bGU9IiIgZmlsbD0ibm9uZSIgc3Ryb2tlLXdpZHRoPSIxLjMiIHN0cm9rZT0iIzk5OSIgZD0iTS0xNjAuOTQzNzU2MTAzNTE1NjIgLTQ4IEMtMzcuMzkyNTk1NTE4MzU2OSAtNDgsIDg2LjE1ODU2NTA2NjgwMTgzIC00OCwgMTYwLjk0Mzc1NjEwMzUxNTYyIC00OCBNLTE2MC45NDM3NTYxMDM1MTU2MiAtNDggQy03NC4zNjkzMzU3Mjk3OTkzIC00OCwgMTIuMjA1MDg0NjQzOTE3MDE5IC00OCwgMTYwLjk0Mzc1NjEwMzUxNTYyIC00OCI+PC9wYXRoPjwvZz48ZyBzdHlsZT0iIiBjbGFzcz0iZGl2aWRlciI+PHBhdGggc3R5bGU9IiIgZmlsbD0ibm9uZSIgc3Ryb2tlLXdpZHRoPSIxLjMiIHN0cm9rZT0iIzk5OSIgZD0iTS0xNjAuOTQzNzU2MTAzNTE1NjIgMCBDLTc0LjY3MzIyMDMxMDkyNTc3IDAsIDExLjU5NzMxNTQ4MTY2NDA4MyAwLCAxNjAuOTQzNzU2MTAzNTE1NjIgMCBNLTE2MC45NDM3NTYxMDM1MTU2MiAwIEMtMzguODY2MTc3MTAzNTA0OTk1IDAsIDgzLjIxMTQwMTg5NjUwNTYzIDAsIDE2MC45NDM3NTYxMDM1MTU2MiAwIj48L3BhdGg+PC9nPjwvZz48ZyB0cmFuc2Zvcm09InRyYW5zbGF0ZSg0OTkuMzM0MzgxMTAzNTE1NiwgODA0LjE5OTk5ODg1NTU5MDgpIiBpZD0iY2xhc3NJZC1NaWxrRGVjb3JhdG9yLTUiIGNsYXNzPSJub2RlIGRlZmF1bHQiPjxnIGNsYXNzPSJiYXNpYyBsYWJlbC1jb250YWluZXIiPjxwYXRoIHN0eWxlPSIiIGZpbGw9IiNlZWUiIHN0cm9rZS13aWR0aD0iMCIgc3Ryb2tlPSJub25lIiBkPSJNLTE0Ni44NTYyNjIyMDcwMzEyNSAtODcgTDE0Ni44NTYyNjIyMDcwMzEyNSAtODcgTDE0Ni44NTYyNjIyMDcwMzEyNSA4NyBMLTE0Ni44NTYyNjIyMDcwMzEyNSA4NyI+PC9wYXRoPjxwYXRoIHN0eWxlPSIiIGZpbGw9Im5vbmUiIHN0cm9rZS13aWR0aD0iMS4zIiBzdHJva2U9IiM5OTkiIGQ9Ik0tMTQ2Ljg1NjI2MjIwNzAzMTI1IC04NyBDLTY5Ljk4ODQ1Mjk1ODQzOTkgLTg3LCA2Ljg3OTM1NjI5MDE1MTQ2MyAtODcsIDE0Ni44NTYyNjIyMDcwMzEyNSAtODcgTS0xNDYuODU2MjYyMjA3MDMxMjUgLTg3IEMtNDYuMzg3MDk2MjQ4Mzg3MjY2IC04NywgNTQuMDgyMDY5NzEwMjU2NzIgLTg3LCAxNDYuODU2MjYyMjA3MDMxMjUgLTg3IE0xNDYuODU2MjYyMjA3MDMxMjUgLTg3IEMxNDYuODU2MjYyMjA3MDMxMjUgLTM2LjU0NTA4MjA3MDgyODUzLCAxNDYuODU2MjYyMjA3MDMxMjUgMTMuOTA5ODM1ODU4MzQyOTQ0LCAxNDYuODU2MjYyMjA3MDMxMjUgODcgTTE0Ni44NTYyNjIyMDcwMzEyNSAtODcgQzE0Ni44NTYyNjIyMDcwMzEyNSAtNDYuOTA4Njg3MjY2MjgzNzg1LCAxNDYuODU2MjYyMjA3MDMxMjUgLTYuODE3Mzc0NTMyNTY3NTcsIDE0Ni44NTYyNjIyMDcwMzEyNSA4NyBNMTQ2Ljg1NjI2MjIwNzAzMTI1IDg3IEM2NS41ODc4ODc2NjI1MTgzMSA4NywgLTE1LjY4MDQ4Njg4MTk5NDYyNSA4NywgLTE0Ni44NTYyNjIyMDcwMzEyNSA4NyBNMTQ2Ljg1NjI2MjIwNzAzMTI1IDg3IEM1Ny4wMDYyMTExMTIyNjMwNiA4NywgLTMyLjg0MzgzOTk4MjUwNTEzIDg3LCAtMTQ2Ljg1NjI2MjIwNzAzMTI1IDg3IE0tMTQ2Ljg1NjI2MjIwNzAzMTI1IDg3IEMtMTQ2Ljg1NjI2MjIwNzAzMTI1IDQ1LjQ1MDE1NzQwMDUxOTU4NiwgLTE0Ni44NTYyNjIyMDcwMzEyNSAzLjkwMDMxNDgwMTAzOTE3MjYsIC0xNDYuODU2MjYyMjA3MDMxMjUgLTg3IE0tMTQ2Ljg1NjI2MjIwNzAzMTI1IDg3IEMtMTQ2Ljg1NjI2MjIwNzAzMTI1IDMwLjg1MzY0MzY4OTA1OTE0LCAtMTQ2Ljg1NjI2MjIwNzAzMTI1IC0yNS4yOTI3MTI2MjE4ODE3MiwgLTE0Ni44NTYyNjIyMDcwMzEyNSAtODciPjwvcGF0aD48L2c+PGcgdHJhbnNmb3JtPSJ0cmFuc2xhdGUoMCwgLTYzKSIgY2xhc3M9ImFubm90YXRpb24tZ3JvdXAgdGV4dCI+PC9nPjxnIHRyYW5zZm9ybT0idHJhbnNsYXRlKC01MiwgLTYzKSIgY2xhc3M9ImxhYmVsLWdyb3VwIHRleHQiPjxnIHRyYW5zZm9ybT0idHJhbnNsYXRlKDAsLTEyKSIgc3R5bGU9ImZvbnQtd2VpZ2h0OiBib2xkZXIiIGNsYXNzPSJsYWJlbCI+PGZvcmVpZ25PYmplY3QgaGVpZ2h0PSIyNCIgd2lkdGg9IjEwNCI+PGRpdiBzdHlsZT0iZGlzcGxheTogdGFibGUtY2VsbDsgd2hpdGUtc3BhY2U6IG5vd3JhcDsgbGluZS1oZWlnaHQ6IDEuNTsgbWF4LXdpZHRoOiAxNTFweDsgdGV4dC1hbGlnbjogY2VudGVyOyIgeG1sbnM9Imh0dHA6Ly93d3cudzMub3JnLzE5OTkveGh0bWwiPjxzcGFuIHN0eWxlPSIiIGNsYXNzPSJub2RlTGFiZWwgbWFya2Rvd24tbm9kZS1sYWJlbCI+PHA+TWlsa0RlY29yYXRvcjwvcD48L3NwYW4+PC9kaXY+PC9mb3JlaWduT2JqZWN0PjwvZz48L2c+PGcgdHJhbnNmb3JtPSJ0cmFuc2xhdGUoLTEzNC44NTYyNjIyMDcwMzEyNSwgLTE1KSIgY2xhc3M9Im1lbWJlcnMtZ3JvdXAgdGV4dCI+PC9nPjxnIHRyYW5zZm9ybT0idHJhbnNsYXRlKC0xMzQuODU2MjYyMjA3MDMxMjUsIDE1KSIgY2xhc3M9Im1ldGhvZHMtZ3JvdXAgdGV4dCI+PGcgdHJhbnNmb3JtPSJ0cmFuc2xhdGUoMCwtMTIpIiBzdHlsZT0iIiBjbGFzcz0ibGFiZWwiPjxmb3JlaWduT2JqZWN0IGhlaWdodD0iMjQiIHdpZHRoPSIyMTcuNzEyNTA5MTU1MjczNDQiPjxkaXYgc3R5bGU9ImRpc3BsYXk6IHRhYmxlLWNlbGw7IHdoaXRlLXNwYWNlOiBub3dyYXA7IGxpbmUtaGVpZ2h0OiAxLjU7IG1heC13aWR0aDogMjcycHg7IHRleHQtYWxpZ246IGNlbnRlcjsiIHhtbG5zPSJodHRwOi8vd3d3LnczLm9yZy8xOTk5L3hodG1sIj48c3BhbiBzdHlsZT0iIiBjbGFzcz0ibm9kZUxhYmVsIG1hcmtkb3duLW5vZGUtbGFiZWwiPjxwPitNaWxrRGVjb3JhdG9yKENvZmZlZSBjb2ZmZWUpPC9wPjwvc3Bhbj48L2Rpdj48L2ZvcmVpZ25PYmplY3Q+PC9nPjxnIHRyYW5zZm9ybT0idHJhbnNsYXRlKDAsMTIpIiBzdHlsZT0iIiBjbGFzcz0ibGFiZWwiPjxmb3JlaWduT2JqZWN0IGhlaWdodD0iMjQiIHdpZHRoPSIxODEuMjI1MDA2MTAzNTE1NjIiPjxkaXYgc3R5bGU9ImRpc3BsYXk6IHRhYmxlLWNlbGw7IHdoaXRlLXNwYWNlOiBub3dyYXA7IGxpbmUtaGVpZ2h0OiAxLjU7IG1heC13aWR0aDogMjM1cHg7IHRleHQtYWxpZ246IGNlbnRlcjsiIHhtbG5zPSJodHRwOi8vd3d3LnczLm9yZy8xOTk5L3hodG1sIj48c3BhbiBzdHlsZT0iIiBjbGFzcz0ibm9kZUxhYmVsIG1hcmtkb3duLW5vZGUtbGFiZWwiPjxwPitnZXREZXNjcmlwdGlvbigpIDogU3RyaW5nPC9wPjwvc3Bhbj48L2Rpdj48L2ZvcmVpZ25PYmplY3Q+PC9nPjxnIHRyYW5zZm9ybT0idHJhbnNsYXRlKDAsMzYpIiBzdHlsZT0iIiBjbGFzcz0ibGFiZWwiPjxmb3JlaWduT2JqZWN0IGhlaWdodD0iMjQiIHdpZHRoPSIxMTMuNTg3NTAxNTI1ODc4OSI+PGRpdiBzdHlsZT0iZGlzcGxheTogdGFibGUtY2VsbDsgd2hpdGUtc3BhY2U6IG5vd3JhcDsgbGluZS1oZWlnaHQ6IDEuNTsgbWF4LXdpZHRoOiAxNjhweDsgdGV4dC1hbGlnbjogY2VudGVyOyIgeG1sbnM9Imh0dHA6Ly93d3cudzMub3JnLzE5OTkveGh0bWwiPjxzcGFuIHN0eWxlPSIiIGNsYXNzPSJub2RlTGFiZWwgbWFya2Rvd24tbm9kZS1sYWJlbCI+PHA+K2Nvc3QoKSA6IGRvdWJsZTwvcD48L3NwYW4+PC9kaXY+PC9mb3JlaWduT2JqZWN0PjwvZz48L2c+PGcgc3R5bGU9IiIgY2xhc3M9ImRpdmlkZXIiPjxwYXRoIHN0eWxlPSIiIGZpbGw9Im5vbmUiIHN0cm9rZS13aWR0aD0iMS4zIiBzdHJva2U9IiM5OTkiIGQ9Ik0tMTQ2Ljg1NjI2MjIwNzAzMTI1IC0zOSBDLTcxLjYwODc0MDc1MDM2MzI0IC0zOSwgMy42Mzg3ODA3MDYzMDQ3NzE3IC0zOSwgMTQ2Ljg1NjI2MjIwNzAzMTI1IC0zOSBNLTE0Ni44NTYyNjIyMDcwMzEyNSAtMzkgQy03My4wMjM4NjgyODgxNTQzOSAtMzksIDAuODA4NTI1NjMwNzIyNDcxMSAtMzksIDE0Ni44NTYyNjIyMDcwMzEyNSAtMzkiPjwvcGF0aD48L2c+PGcgc3R5bGU9IiIgY2xhc3M9ImRpdmlkZXIiPjxwYXRoIHN0eWxlPSIiIGZpbGw9Im5vbmUiIHN0cm9rZS13aWR0aD0iMS4zIiBzdHJva2U9IiM5OTkiIGQ9Ik0tMTQ2Ljg1NjI2MjIwNzAzMTI1IC0xNSBDLTM1LjQ5MDY2MjkzNzY3NzQzIC0xNSwgNzUuODc0OTM2MzMxNjc2NCAtMTUsIDE0Ni44NTYyNjIyMDcwMzEyNSAtMTUgTS0xNDYuODU2MjYyMjA3MDMxMjUgLTE1IEMtMzEuMDAzNDE1MDczMzQ1NzUgLTE1LCA4NC44NDk0MzIwNjAzMzk3NSAtMTUsIDE0Ni44NTYyNjIyMDcwMzEyNSAtMTUiPjwvcGF0aD48L2c+PC9nPjxnIHRyYW5zZm9ybT0idHJhbnNsYXRlKDg1MC45NTYyNjgzMTA1NDY5LCA4MDQuMTk5OTk4ODU1NTkwOCkiIGlkPSJjbGFzc0lkLVN1Z2FyRGVjb3JhdG9yLTYiIGNsYXNzPSJub2RlIGRlZmF1bHQiPjxnIGNsYXNzPSJiYXNpYyBsYWJlbC1jb250YWluZXIiPjxwYXRoIHN0eWxlPSIiIGZpbGw9IiNlZWUiIHN0cm9rZS13aWR0aD0iMCIgc3Ryb2tlPSJub25lIiBkPSJNLTE1NC43NjU2MjUgLTg3IEwxNTQuNzY1NjI1IC04NyBMMTU0Ljc2NTYyNSA4NyBMLTE1NC43NjU2MjUgODciPjwvcGF0aD48cGF0aCBzdHlsZT0iIiBmaWxsPSJub25lIiBzdHJva2Utd2lkdGg9IjEuMyIgc3Ryb2tlPSIjOTk5IiBkPSJNLTE1NC43NjU2MjUgLTg3IEMtODQuMjUyMjc2OTc1MzQ2MTYgLTg3LCAtMTMuNzM4OTI4OTUwNjkyMzI2IC04NywgMTU0Ljc2NTYyNSAtODcgTS0xNTQuNzY1NjI1IC04NyBDLTQyLjAzOTA2NDUxMjYzMDMyIC04NywgNzAuNjg3NDk1OTc0NzM5MzYgLTg3LCAxNTQuNzY1NjI1IC04NyBNMTU0Ljc2NTYyNSAtODcgQzE1NC43NjU2MjUgLTIzLjc4ODM3NTkyMDcxNTY4NywgMTU0Ljc2NTYyNSAzOS40MjMyNDgxNTg1Njg2MjYsIDE1NC43NjU2MjUgODcgTTE1NC43NjU2MjUgLTg3IEMxNTQuNzY1NjI1IC0yNy41MjY5MTY2NzU2Mjg3NTUsIDE1NC43NjU2MjUgMzEuOTQ2MTY2NjQ4NzQyNDksIDE1NC43NjU2MjUgODcgTTE1NC43NjU2MjUgODcgQzM4LjMzNjM4Njg3MDMzMjA2IDg3LCAtNzguMDkyODUxMjU5MzM1ODcgODcsIC0xNTQuNzY1NjI1IDg3IE0xNTQuNzY1NjI1IDg3IEMzNy42NzQwNDQ4OTEzNDA5MyA4NywgLTc5LjQxNzUzNTIxNzMxODE1IDg3LCAtMTU0Ljc2NTYyNSA4NyBNLTE1NC43NjU2MjUgODcgQy0xNTQuNzY1NjI1IDUyLjA2NTA1NDAwMDgwNjQ1LCAtMTU0Ljc2NTYyNSAxNy4xMzAxMDgwMDE2MTI4OTYsIC0xNTQuNzY1NjI1IC04NyBNLTE1NC43NjU2MjUgODcgQy0xNTQuNzY1NjI1IDE4LjAzNDc5MzYwNjUwMzkyNSwgLTE1NC43NjU2MjUgLTUwLjkzMDQxMjc4Njk5MjE1LCAtMTU0Ljc2NTYyNSAtODciPjwvcGF0aD48L2c+PGcgdHJhbnNmb3JtPSJ0cmFuc2xhdGUoMCwgLTYzKSIgY2xhc3M9ImFubm90YXRpb24tZ3JvdXAgdGV4dCI+PC9nPjxnIHRyYW5zZm9ybT0idHJhbnNsYXRlKC01Ny40MTg3NTA3NjI5Mzk0NSwgLTYzKSIgY2xhc3M9ImxhYmVsLWdyb3VwIHRleHQiPjxnIHRyYW5zZm9ybT0idHJhbnNsYXRlKDAsLTEyKSIgc3R5bGU9ImZvbnQtd2VpZ2h0OiBib2xkZXIiIGNsYXNzPSJsYWJlbCI+PGZvcmVpZ25PYmplY3QgaGVpZ2h0PSIyNCIgd2lkdGg9IjExNC44Mzc1MDE1MjU4Nzg5Ij48ZGl2IHN0eWxlPSJkaXNwbGF5OiB0YWJsZS1jZWxsOyB3aGl0ZS1zcGFjZTogbm93cmFwOyBsaW5lLWhlaWdodDogMS41OyBtYXgtd2lkdGg6IDE2MnB4OyB0ZXh0LWFsaWduOiBjZW50ZXI7IiB4bWxucz0iaHR0cDovL3d3dy53My5vcmcvMTk5OS94aHRtbCI+PHNwYW4gc3R5bGU9IiIgY2xhc3M9Im5vZGVMYWJlbCBtYXJrZG93bi1ub2RlLWxhYmVsIj48cD5TdWdhckRlY29yYXRvcjwvcD48L3NwYW4+PC9kaXY+PC9mb3JlaWduT2JqZWN0PjwvZz48L2c+PGcgdHJhbnNmb3JtPSJ0cmFuc2xhdGUoLTE0Mi43NjU2MjUsIC0xNSkiIGNsYXNzPSJtZW1iZXJzLWdyb3VwIHRleHQiPjwvZz48ZyB0cmFuc2Zvcm09InRyYW5zbGF0ZSgtMTQyLjc2NTYyNSwgMTUpIiBjbGFzcz0ibWV0aG9kcy1ncm91cCB0ZXh0Ij48ZyB0cmFuc2Zvcm09InRyYW5zbGF0ZSgwLC0xMikiIHN0eWxlPSIiIGNsYXNzPSJsYWJlbCI+PGZvcmVpZ25PYmplY3QgaGVpZ2h0PSIyNCIgd2lkdGg9IjIyOC4xMTI1MDMwNTE3NTc4Ij48ZGl2IHN0eWxlPSJkaXNwbGF5OiB0YWJsZS1jZWxsOyB3aGl0ZS1zcGFjZTogbm93cmFwOyBsaW5lLWhlaWdodDogMS41OyBtYXgtd2lkdGg6IDI4MnB4OyB0ZXh0LWFsaWduOiBjZW50ZXI7IiB4bWxucz0iaHR0cDovL3d3dy53My5vcmcvMTk5OS94aHRtbCI+PHNwYW4gc3R5bGU9IiIgY2xhc3M9Im5vZGVMYWJlbCBtYXJrZG93bi1ub2RlLWxhYmVsIj48cD4rU3VnYXJEZWNvcmF0b3IoQ29mZmVlIGNvZmZlZSk8L3A+PC9zcGFuPjwvZGl2PjwvZm9yZWlnbk9iamVjdD48L2c+PGcgdHJhbnNmb3JtPSJ0cmFuc2xhdGUoMCwxMikiIHN0eWxlPSIiIGNsYXNzPSJsYWJlbCI+PGZvcmVpZ25PYmplY3QgaGVpZ2h0PSIyNCIgd2lkdGg9IjE4MS4yMjUwMDYxMDM1MTU2MiI+PGRpdiBzdHlsZT0iZGlzcGxheTogdGFibGUtY2VsbDsgd2hpdGUtc3BhY2U6IG5vd3JhcDsgbGluZS1oZWlnaHQ6IDEuNTsgbWF4LXdpZHRoOiAyMzVweDsgdGV4dC1hbGlnbjogY2VudGVyOyIgeG1sbnM9Imh0dHA6Ly93d3cudzMub3JnLzE5OTkveGh0bWwiPjxzcGFuIHN0eWxlPSIiIGNsYXNzPSJub2RlTGFiZWwgbWFya2Rvd24tbm9kZS1sYWJlbCI+PHA+K2dldERlc2NyaXB0aW9uKCkgOiBTdHJpbmc8L3A+PC9zcGFuPjwvZGl2PjwvZm9yZWlnbk9iamVjdD48L2c+PGcgdHJhbnNmb3JtPSJ0cmFuc2xhdGUoMCwzNikiIHN0eWxlPSIiIGNsYXNzPSJsYWJlbCI+PGZvcmVpZ25PYmplY3QgaGVpZ2h0PSIyNCIgd2lkdGg9IjExMy41ODc1MDE1MjU4Nzg5Ij48ZGl2IHN0eWxlPSJkaXNwbGF5OiB0YWJsZS1jZWxsOyB3aGl0ZS1zcGFjZTogbm93cmFwOyBsaW5lLWhlaWdodDogMS41OyBtYXgtd2lkdGg6IDE2OHB4OyB0ZXh0LWFsaWduOiBjZW50ZXI7IiB4bWxucz0iaHR0cDovL3d3dy53My5vcmcvMTk5OS94aHRtbCI+PHNwYW4gc3R5bGU9IiIgY2xhc3M9Im5vZGVMYWJlbCBtYXJrZG93bi1ub2RlLWxhYmVsIj48cD4rY29zdCgpIDogZG91YmxlPC9wPjwvc3Bhbj48L2Rpdj48L2ZvcmVpZ25PYmplY3Q+PC9nPjwvZz48ZyBzdHlsZT0iIiBjbGFzcz0iZGl2aWRlciI+PHBhdGggc3R5bGU9IiIgZmlsbD0ibm9uZSIgc3Ryb2tlLXdpZHRoPSIxLjMiIHN0cm9rZT0iIzk5OSIgZD0iTS0xNTQuNzY1NjI1IC0zOSBDLTMyLjE5MjkzMjIwODA2NjkxIC0zOSwgOTAuMzc5NzYwNTgzODY2MTkgLTM5LCAxNTQuNzY1NjI1IC0zOSBNLTE1NC43NjU2MjUgLTM5IEMtNTcuODg3MDE2NDQyOTE0MDc0IC0zOSwgMzguOTkxNTkyMTE0MTcxODUgLTM5LCAxNTQuNzY1NjI1IC0zOSI+PC9wYXRoPjwvZz48ZyBzdHlsZT0iIiBjbGFzcz0iZGl2aWRlciI+PHBhdGggc3R5bGU9IiIgZmlsbD0ibm9uZSIgc3Ryb2tlLXdpZHRoPSIxLjMiIHN0cm9rZT0iIzk5OSIgZD0iTS0xNTQuNzY1NjI1IC0xNSBDLTMzLjEyOTQxNTYzMjc2NTUxNCAtMTUsIDg4LjUwNjc5MzczNDQ2ODk3IC0xNSwgMTU0Ljc2NTYyNSAtMTUgTS0xNTQuNzY1NjI1IC0xNSBDLTUxLjM5OTI1NjQ3MTI3NDc4IC0xNSwgNTEuOTY3MTEyMDU3NDUwNDM2IC0xNSwgMTU0Ljc2NTYyNSAtMTUiPjwvcGF0aD48L2c+PC9nPjxnIHRyYW5zZm9ybT0idHJhbnNsYXRlKDEyNjMuMzkzNzY4MzEwNTQ2OSwgODA0LjE5OTk5ODg1NTU5MDgpIiBpZD0iY2xhc3NJZC1XaGlwcGVkQ3JlYW1EZWNvcmF0b3ItNyIgY2xhc3M9Im5vZGUgZGVmYXVsdCI+PGcgY2xhc3M9ImJhc2ljIGxhYmVsLWNvbnRhaW5lciI+PHBhdGggc3R5bGU9IiIgZmlsbD0iI2VlZSIgc3Ryb2tlLXdpZHRoPSIwIiBzdHJva2U9Im5vbmUiIGQ9Ik0tMjA3LjY3MTg3NSAtODcgTDIwNy42NzE4NzUgLTg3IEwyMDcuNjcxODc1IDg3IEwtMjA3LjY3MTg3NSA4NyI+PC9wYXRoPjxwYXRoIHN0eWxlPSIiIGZpbGw9Im5vbmUiIHN0cm9rZS13aWR0aD0iMS4zIiBzdHJva2U9IiM5OTkiIGQ9Ik0tMjA3LjY3MTg3NSAtODcgQy04My4yMDA3MTM3MzkxMTggLTg3LCA0MS4yNzA0NDc1MjE3NjQgLTg3LCAyMDcuNjcxODc1IC04NyBNLTIwNy42NzE4NzUgLTg3IEMtNzIuNjMwOTU5MjY1MzIyNyAtODcsIDYyLjQwOTk1NjQ2OTM1NDYgLTg3LCAyMDcuNjcxODc1IC04NyBNMjA3LjY3MTg3NSAtODcgQzIwNy42NzE4NzUgLTI3Ljg1ODIyNzQwOTIwMDUxLCAyMDcuNjcxODc1IDMxLjI4MzU0NTE4MTU5ODk4LCAyMDcuNjcxODc1IDg3IE0yMDcuNjcxODc1IC04NyBDMjA3LjY3MTg3NSAtMzkuMDQ3MDI1MjA3Nzk0NTIsIDIwNy42NzE4NzUgOC45MDU5NDk1ODQ0MTA5NjIsIDIwNy42NzE4NzUgODcgTTIwNy42NzE4NzUgODcgQzgyLjEyMDgxOTcxMzMxMDAxIDg3LCAtNDMuNDMwMjM1NTczMzc5OTc0IDg3LCAtMjA3LjY3MTg3NSA4NyBNMjA3LjY3MTg3NSA4NyBDNDIuMTYzMTMyNDYzOTg4NzIgODcsIC0xMjMuMzQ1NjEwMDcyMDIyNTcgODcsIC0yMDcuNjcxODc1IDg3IE0tMjA3LjY3MTg3NSA4NyBDLTIwNy42NzE4NzUgMzIuNjEwODY1NDc4MzkyMjM1LCAtMjA3LjY3MTg3NSAtMjEuNzc4MjY5MDQzMjE1NTMsIC0yMDcuNjcxODc1IC04NyBNLTIwNy42NzE4NzUgODcgQy0yMDcuNjcxODc1IDIxLjY2OTYwNjg1MTQ3MDMyLCAtMjA3LjY3MTg3NSAtNDMuNjYwNzg2Mjk3MDU5MzYsIC0yMDcuNjcxODc1IC04NyI+PC9wYXRoPjwvZz48ZyB0cmFuc2Zvcm09InRyYW5zbGF0ZSgwLCAtNjMpIiBjbGFzcz0iYW5ub3RhdGlvbi1ncm91cCB0ZXh0Ij48L2c+PGcgdHJhbnNmb3JtPSJ0cmFuc2xhdGUoLTkzLjcxODc1LCAtNjMpIiBjbGFzcz0ibGFiZWwtZ3JvdXAgdGV4dCI+PGcgdHJhbnNmb3JtPSJ0cmFuc2xhdGUoMCwtMTIpIiBzdHlsZT0iZm9udC13ZWlnaHQ6IGJvbGRlciIgY2xhc3M9ImxhYmVsIj48Zm9yZWlnbk9iamVjdCBoZWlnaHQ9IjI0IiB3aWR0aD0iMTg3LjQzNzUiPjxkaXYgc3R5bGU9ImRpc3BsYXk6IHRhYmxlLWNlbGw7IHdoaXRlLXNwYWNlOiBub3dyYXA7IGxpbmUtaGVpZ2h0OiAxLjU7IG1heC13aWR0aDogMjMycHg7IHRleHQtYWxpZ246IGNlbnRlcjsiIHhtbG5zPSJodHRwOi8vd3d3LnczLm9yZy8xOTk5L3hodG1sIj48c3BhbiBzdHlsZT0iIiBjbGFzcz0ibm9kZUxhYmVsIG1hcmtkb3duLW5vZGUtbGFiZWwiPjxwPldoaXBwZWRDcmVhbURlY29yYXRvcjwvcD48L3NwYW4+PC9kaXY+PC9mb3JlaWduT2JqZWN0PjwvZz48L2c+PGcgdHJhbnNmb3JtPSJ0cmFuc2xhdGUoLTE5NS42NzE4NzUsIC0xNSkiIGNsYXNzPSJtZW1iZXJzLWdyb3VwIHRleHQiPjwvZz48ZyB0cmFuc2Zvcm09InRyYW5zbGF0ZSgtMTk1LjY3MTg3NSwgMTUpIiBjbGFzcz0ibWV0aG9kcy1ncm91cCB0ZXh0Ij48ZyB0cmFuc2Zvcm09InRyYW5zbGF0ZSgwLC0xMikiIHN0eWxlPSIiIGNsYXNzPSJsYWJlbCI+PGZvcmVpZ25PYmplY3QgaGVpZ2h0PSIyNCIgd2lkdGg9IjI5Ny42MjUiPjxkaXYgc3R5bGU9ImRpc3BsYXk6IHRhYmxlLWNlbGw7IHdoaXRlLXNwYWNlOiBub3dyYXA7IGxpbmUtaGVpZ2h0OiAxLjU7IG1heC13aWR0aDogMzUycHg7IHRleHQtYWxpZ246IGNlbnRlcjsiIHhtbG5zPSJodHRwOi8vd3d3LnczLm9yZy8xOTk5L3hodG1sIj48c3BhbiBzdHlsZT0iIiBjbGFzcz0ibm9kZUxhYmVsIG1hcmtkb3duLW5vZGUtbGFiZWwiPjxwPitXaGlwcGVkQ3JlYW1EZWNvcmF0b3IoQ29mZmVlIGNvZmZlZSk8L3A+PC9zcGFuPjwvZGl2PjwvZm9yZWlnbk9iamVjdD48L2c+PGcgdHJhbnNmb3JtPSJ0cmFuc2xhdGUoMCwxMikiIHN0eWxlPSIiIGNsYXNzPSJsYWJlbCI+PGZvcmVpZ25PYmplY3QgaGVpZ2h0PSIyNCIgd2lkdGg9IjE4MS4yMjUwMDYxMDM1MTU2MiI+PGRpdiBzdHlsZT0iZGlzcGxheTogdGFibGUtY2VsbDsgd2hpdGUtc3BhY2U6IG5vd3JhcDsgbGluZS1oZWlnaHQ6IDEuNTsgbWF4LXdpZHRoOiAyMzVweDsgdGV4dC1hbGlnbjogY2VudGVyOyIgeG1sbnM9Imh0dHA6Ly93d3cudzMub3JnLzE5OTkveGh0bWwiPjxzcGFuIHN0eWxlPSIiIGNsYXNzPSJub2RlTGFiZWwgbWFya2Rvd24tbm9kZS1sYWJlbCI+PHA+K2dldERlc2NyaXB0aW9uKCkgOiBTdHJpbmc8L3A+PC9zcGFuPjwvZGl2PjwvZm9yZWlnbk9iamVjdD48L2c+PGcgdHJhbnNmb3JtPSJ0cmFuc2xhdGUoMCwzNikiIHN0eWxlPSIiIGNsYXNzPSJsYWJlbCI+PGZvcmVpZ25PYmplY3QgaGVpZ2h0PSIyNCIgd2lkdGg9IjExMy41ODc1MDE1MjU4Nzg5Ij48ZGl2IHN0eWxlPSJkaXNwbGF5OiB0YWJsZS1jZWxsOyB3aGl0ZS1zcGFjZTogbm93cmFwOyBsaW5lLWhlaWdodDogMS41OyBtYXgtd2lkdGg6IDE2OHB4OyB0ZXh0LWFsaWduOiBjZW50ZXI7IiB4bWxucz0iaHR0cDovL3d3dy53My5vcmcvMTk5OS94aHRtbCI+PHNwYW4gc3R5bGU9IiIgY2xhc3M9Im5vZGVMYWJlbCBtYXJrZG93bi1ub2RlLWxhYmVsIj48cD4rY29zdCgpIDogZG91YmxlPC9wPjwvc3Bhbj48L2Rpdj48L2ZvcmVpZ25PYmplY3Q+PC9nPjwvZz48ZyBzdHlsZT0iIiBjbGFzcz0iZGl2aWRlciI+PHBhdGggc3R5bGU9IiIgZmlsbD0ibm9uZSIgc3Ryb2tlLXdpZHRoPSIxLjMiIHN0cm9rZT0iIzk5OSIgZD0iTS0yMDcuNjcxODc1IC0zOSBDLTU4LjI4MjEyNzk1NzE0OTMgLTM5LCA5MS4xMDc2MTkwODU3MDE0IC0zOSwgMjA3LjY3MTg3NSAtMzkgTS0yMDcuNjcxODc1IC0zOSBDLTQxLjkxMzQ5OTI5NTczODQ2IC0zOSwgMTIzLjg0NDg3NjQwODUyMzA4IC0zOSwgMjA3LjY3MTg3NSAtMzkiPjwvcGF0aD48L2c+PGcgc3R5bGU9IiIgY2xhc3M9ImRpdmlkZXIiPjxwYXRoIHN0eWxlPSIiIGZpbGw9Im5vbmUiIHN0cm9rZS13aWR0aD0iMS4zIiBzdHJva2U9IiM5OTkiIGQ9Ik0tMjA3LjY3MTg3NSAtMTUgQy02OC43MTE1MTE0MzE3OTA1NCAtMTUsIDcwLjI0ODg1MjEzNjQxODkyIC0xNSwgMjA3LjY3MTg3NSAtMTUgTS0yMDcuNjcxODc1IC0xNSBDLTEyMC4wMjMxODE3ODM0ODE1IC0xNSwgLTMyLjM3NDQ4ODU2Njk2MzAxIC0xNSwgMjA3LjY3MTg3NSAtMTUiPjwvcGF0aD48L2c+PC9nPjxnIHRyYW5zZm9ybT0idHJhbnNsYXRlKDUxNi45MTg3NjIyMDcwMzEyLCA3MSkiIGlkPSJjbGFzc0lkLURlY29yYXRvckRQLTgiIGNsYXNzPSJub2RlIGRlZmF1bHQiPjxnIGNsYXNzPSJiYXNpYyBsYWJlbC1jb250YWluZXIiPjxwYXRoIHN0eWxlPSIiIGZpbGw9IiNlZWUiIHN0cm9rZS13aWR0aD0iMCIgc3Ryb2tlPSJub25lIiBkPSJNLTEwNi41OTA2MjE5NDgyNDIxOSAtNjMgTDEwNi41OTA2MjE5NDgyNDIxOSAtNjMgTDEwNi41OTA2MjE5NDgyNDIxOSA2MyBMLTEwNi41OTA2MjE5NDgyNDIxOSA2MyI+PC9wYXRoPjxwYXRoIHN0eWxlPSIiIGZpbGw9Im5vbmUiIHN0cm9rZS13aWR0aD0iMS4zIiBzdHJva2U9IiM5OTkiIGQ9Ik0tMTA2LjU5MDYyMTk0ODI0MjE5IC02MyBDLTMyLjc3NDUwOTg4MzU4NTU0IC02MywgNDEuMDQxNjAyMTgxMDcxMTEgLTYzLCAxMDYuNTkwNjIxOTQ4MjQyMTkgLTYzIE0tMTA2LjU5MDYyMTk0ODI0MjE5IC02MyBDLTQ2LjEzNzAzNDgwMjkwNDM5NSAtNjMsIDE0LjMxNjU1MjM0MjQzMzM5NyAtNjMsIDEwNi41OTA2MjE5NDgyNDIxOSAtNjMgTTEwNi41OTA2MjE5NDgyNDIxOSAtNjMgQzEwNi41OTA2MjE5NDgyNDIxOSAtMTkuOTA1NjE2Njk2MDIwMDI2LCAxMDYuNTkwNjIxOTQ4MjQyMTkgMjMuMTg4NzY2NjA3OTU5OTUsIDEwNi41OTA2MjE5NDgyNDIxOSA2MyBNMTA2LjU5MDYyMTk0ODI0MjE5IC02MyBDMTA2LjU5MDYyMTk0ODI0MjE5IC0zMC4zMzUyNTU0ODE3MzM1NTQsIDEwNi41OTA2MjE5NDgyNDIxOSAyLjMyOTQ4OTAzNjUzMjg5MSwgMTA2LjU5MDYyMTk0ODI0MjE5IDYzIE0xMDYuNTkwNjIxOTQ4MjQyMTkgNjMgQzI3Ljc5MDIwMTUyNDg2NDE2IDYzLCAtNTEuMDEwMjE4ODk4NTEzODcgNjMsIC0xMDYuNTkwNjIxOTQ4MjQyMTkgNjMgTTEwNi41OTA2MjE5NDgyNDIxOSA2MyBDNTQuMDUzNjY0NDIxODI1MjggNjMsIDEuNTE2NzA2ODk1NDA4Mzc2IDYzLCAtMTA2LjU5MDYyMTk0ODI0MjE5IDYzIE0tMTA2LjU5MDYyMTk0ODI0MjE5IDYzIEMtMTA2LjU5MDYyMTk0ODI0MjE5IDM0LjM2MjIyMjQ3NDQ5NDE0LCAtMTA2LjU5MDYyMTk0ODI0MjE5IDUuNzI0NDQ0OTQ4OTg4Mjc4LCAtMTA2LjU5MDYyMTk0ODI0MjE5IC02MyBNLTEwNi41OTA2MjE5NDgyNDIxOSA2MyBDLTEwNi41OTA2MjE5NDgyNDIxOSAyNC45Mzk5NzA2MTA1Mzk2MjUsIC0xMDYuNTkwNjIxOTQ4MjQyMTkgLTEzLjEyMDA1ODc3ODkyMDc1LCAtMTA2LjU5MDYyMTk0ODI0MjE5IC02MyI+PC9wYXRoPjwvZz48ZyB0cmFuc2Zvcm09InRyYW5zbGF0ZSgwLCAtMzkpIiBjbGFzcz0iYW5ub3RhdGlvbi1ncm91cCB0ZXh0Ij48L2c+PGcgdHJhbnNmb3JtPSJ0cmFuc2xhdGUoLTQ2Ljc0Mzc1MTUyNTg3ODkwNiwgLTM5KSIgY2xhc3M9ImxhYmVsLWdyb3VwIHRleHQiPjxnIHRyYW5zZm9ybT0idHJhbnNsYXRlKDAsLTEyKSIgc3R5bGU9ImZvbnQtd2VpZ2h0OiBib2xkZXIiIGNsYXNzPSJsYWJlbCI+PGZvcmVpZ25PYmplY3QgaGVpZ2h0PSIyNCIgd2lkdGg9IjkzLjQ4NzUwMzA1MTc1NzgxIj48ZGl2IHN0eWxlPSJkaXNwbGF5OiB0YWJsZS1jZWxsOyB3aGl0ZS1zcGFjZTogbm93cmFwOyBsaW5lLWhlaWdodDogMS41OyBtYXgtd2lkdGg6IDE0MXB4OyB0ZXh0LWFsaWduOiBjZW50ZXI7IiB4bWxucz0iaHR0cDovL3d3dy53My5vcmcvMTk5OS94aHRtbCI+PHNwYW4gc3R5bGU9IiIgY2xhc3M9Im5vZGVMYWJlbCBtYXJrZG93bi1ub2RlLWxhYmVsIj48cD5EZWNvcmF0b3JEUDwvcD48L3NwYW4+PC9kaXY+PC9mb3JlaWduT2JqZWN0PjwvZz48L2c+PGcgdHJhbnNmb3JtPSJ0cmFuc2xhdGUoLTk0LjU5MDYyMTk0ODI0MjE5LCA5KSIgY2xhc3M9Im1lbWJlcnMtZ3JvdXAgdGV4dCI+PC9nPjxnIHRyYW5zZm9ybT0idHJhbnNsYXRlKC05NC41OTA2MjE5NDgyNDIxOSwgMzkpIiBjbGFzcz0ibWV0aG9kcy1ncm91cCB0ZXh0Ij48ZyB0cmFuc2Zvcm09InRyYW5zbGF0ZSgwLC0xMikiIHN0eWxlPSIiIGNsYXNzPSJsYWJlbCI+PGZvcmVpZ25PYmplY3QgaGVpZ2h0PSIyNCIgd2lkdGg9IjE0Mi40Mzc1Ij48ZGl2IHN0eWxlPSJkaXNwbGF5OiB0YWJsZS1jZWxsOyB3aGl0ZS1zcGFjZTogbm93cmFwOyBsaW5lLWhlaWdodDogMS41OyBtYXgtd2lkdGg6IDE5OHB4OyB0ZXh0LWFsaWduOiBjZW50ZXI7IiB4bWxucz0iaHR0cDovL3d3dy53My5vcmcvMTk5OS94aHRtbCI+PHNwYW4gc3R5bGU9IiIgY2xhc3M9Im5vZGVMYWJlbCBtYXJrZG93bi1ub2RlLWxhYmVsIj48cD4rbWFpbihTdHJpbmdbXSBhcmdzKTwvcD48L3NwYW4+PC9kaXY+PC9mb3JlaWduT2JqZWN0PjwvZz48L2c+PGcgc3R5bGU9IiIgY2xhc3M9ImRpdmlkZXIiPjxwYXRoIHN0eWxlPSIiIGZpbGw9Im5vbmUiIHN0cm9rZS13aWR0aD0iMS4zIiBzdHJva2U9IiM5OTkiIGQ9Ik0tMTA2LjU5MDYyMTk0ODI0MjE5IC0xNSBDLTMxLjQzNDI1OTU5MTEwNjI5NyAtMTUsIDQzLjcyMjEwMjc2NjAyOTU5IC0xNSwgMTA2LjU5MDYyMTk0ODI0MjE5IC0xNSBNLTEwNi41OTA2MjE5NDgyNDIxOSAtMTUgQy00OC44MjUzODYyNDk4NzA3MiAtMTUsIDguOTM5ODQ5NDQ4NTAwNzUyIC0xNSwgMTA2LjU5MDYyMTk0ODI0MjE5IC0xNSI+PC9wYXRoPjwvZz48ZyBzdHlsZT0iIiBjbGFzcz0iZGl2aWRlciI+PHBhdGggc3R5bGU9IiIgZmlsbD0ibm9uZSIgc3Ryb2tlLXdpZHRoPSIxLjMiIHN0cm9rZT0iIzk5OSIgZD0iTS0xMDYuNTkwNjIxOTQ4MjQyMTkgOSBDLTQzLjc4NDk2OTExOTk5NTQ3IDksIDE5LjAyMDY4MzcwODI1MTI0IDksIDEwNi41OTA2MjE5NDgyNDIxOSA5IE0tMTA2LjU5MDYyMTk0ODI0MjE5IDkgQy02My4zMzA2NDg2ODM4ODg4NSA5LCAtMjAuMDcwNjc1NDE5NTM1NTIgOSwgMTA2LjU5MDYyMTk0ODI0MjE5IDkiPjwvcGF0aD48L2c+PC9nPjwvZz48L2c+PC9nPjwvc3ZnPg==;" vertex="1" parent="1">
                        <mxGeometry x="-350" y="-160" width="1479.065673828125" height="899.2000732421875" as="geometry"/>
                    </mxCell>
                </UserObject>
            </root>
        </mxGraphModel>
    </diagram>
</mxfile>